<mxfile host="app.diagrams.net" modified="2023-12-18T09:10:43.047Z" agent="Mozilla/5.0 (Macintosh; Intel Mac OS X 10_15_7) AppleWebKit/605.1.15 (KHTML, like Gecko) Version/15.3 Safari/605.1.15" etag="xb2_rONeqXYWSeP5e6cW" version="22.1.11" type="github">
  <diagram id="R2lEEEUBdFMjLlhIrx00" name="Page-1">
    <mxGraphModel dx="2312" dy="1103" grid="0" gridSize="10" guides="1" tooltips="1" connect="1" arrows="1" fold="1" page="0" pageScale="1" pageWidth="850" pageHeight="1100" math="0" shadow="0" extFonts="Permanent Marker^https://fonts.googleapis.com/css?family=Permanent+Marker">
      <root>
        <mxCell id="0" />
        <mxCell id="1" parent="0" />
        <mxCell id="C-vyLk0tnHw3VtMMgP7b-2" value="Usuario" style="shape=table;startSize=30;container=1;collapsible=1;childLayout=tableLayout;fixedRows=1;rowLines=0;fontStyle=1;align=center;resizeLast=1;fillColor=#ffe6cc;strokeColor=#d79b00;" parent="1" vertex="1">
          <mxGeometry x="437.75" y="499" width="250" height="310" as="geometry" />
        </mxCell>
        <mxCell id="C-vyLk0tnHw3VtMMgP7b-3" value="" style="shape=partialRectangle;collapsible=0;dropTarget=0;pointerEvents=0;fillColor=none;points=[[0,0.5],[1,0.5]];portConstraint=eastwest;top=0;left=0;right=0;bottom=1;" parent="C-vyLk0tnHw3VtMMgP7b-2" vertex="1">
          <mxGeometry y="30" width="250" height="30" as="geometry" />
        </mxCell>
        <mxCell id="C-vyLk0tnHw3VtMMgP7b-4" value="PK" style="shape=partialRectangle;overflow=hidden;connectable=0;fillColor=none;top=0;left=0;bottom=0;right=0;fontStyle=1;" parent="C-vyLk0tnHw3VtMMgP7b-3" vertex="1">
          <mxGeometry width="30" height="30" as="geometry">
            <mxRectangle width="30" height="30" as="alternateBounds" />
          </mxGeometry>
        </mxCell>
        <mxCell id="C-vyLk0tnHw3VtMMgP7b-5" value="usuario_id auto inc unsigned" style="shape=partialRectangle;overflow=hidden;connectable=0;fillColor=none;top=0;left=0;bottom=0;right=0;align=left;spacingLeft=6;fontStyle=5;" parent="C-vyLk0tnHw3VtMMgP7b-3" vertex="1">
          <mxGeometry x="30" width="220" height="30" as="geometry">
            <mxRectangle width="220" height="30" as="alternateBounds" />
          </mxGeometry>
        </mxCell>
        <mxCell id="Bu5DhKh5VEppCecuc6ry-4" value="" style="shape=tableRow;horizontal=0;startSize=0;swimlaneHead=0;swimlaneBody=0;fillColor=none;collapsible=0;dropTarget=0;points=[[0,0.5],[1,0.5]];portConstraint=eastwest;top=0;left=0;right=0;bottom=0;" vertex="1" parent="C-vyLk0tnHw3VtMMgP7b-2">
          <mxGeometry y="60" width="250" height="30" as="geometry" />
        </mxCell>
        <mxCell id="Bu5DhKh5VEppCecuc6ry-5" value="FK" style="shape=partialRectangle;connectable=0;fillColor=#f8cecc;top=0;left=0;bottom=0;right=0;fontStyle=0;overflow=hidden;whiteSpace=wrap;html=1;strokeColor=#b85450;" vertex="1" parent="Bu5DhKh5VEppCecuc6ry-4">
          <mxGeometry width="30" height="30" as="geometry">
            <mxRectangle width="30" height="30" as="alternateBounds" />
          </mxGeometry>
        </mxCell>
        <mxCell id="Bu5DhKh5VEppCecuc6ry-6" value="empresa_id" style="shape=partialRectangle;connectable=0;fillColor=#f8cecc;top=0;left=0;bottom=0;right=0;align=left;spacingLeft=6;fontStyle=0;overflow=hidden;whiteSpace=wrap;html=1;strokeColor=#b85450;" vertex="1" parent="Bu5DhKh5VEppCecuc6ry-4">
          <mxGeometry x="30" width="220" height="30" as="geometry">
            <mxRectangle width="220" height="30" as="alternateBounds" />
          </mxGeometry>
        </mxCell>
        <mxCell id="C-vyLk0tnHw3VtMMgP7b-6" value="" style="shape=partialRectangle;collapsible=0;dropTarget=0;pointerEvents=0;fillColor=none;points=[[0,0.5],[1,0.5]];portConstraint=eastwest;top=0;left=0;right=0;bottom=0;" parent="C-vyLk0tnHw3VtMMgP7b-2" vertex="1">
          <mxGeometry y="90" width="250" height="30" as="geometry" />
        </mxCell>
        <mxCell id="C-vyLk0tnHw3VtMMgP7b-7" value="U" style="shape=partialRectangle;overflow=hidden;connectable=0;fillColor=none;top=0;left=0;bottom=0;right=0;" parent="C-vyLk0tnHw3VtMMgP7b-6" vertex="1">
          <mxGeometry width="30" height="30" as="geometry">
            <mxRectangle width="30" height="30" as="alternateBounds" />
          </mxGeometry>
        </mxCell>
        <mxCell id="C-vyLk0tnHw3VtMMgP7b-8" value="usuario VARCHAR(50)" style="shape=partialRectangle;overflow=hidden;connectable=0;fillColor=none;top=0;left=0;bottom=0;right=0;align=left;spacingLeft=6;" parent="C-vyLk0tnHw3VtMMgP7b-6" vertex="1">
          <mxGeometry x="30" width="220" height="30" as="geometry">
            <mxRectangle width="220" height="30" as="alternateBounds" />
          </mxGeometry>
        </mxCell>
        <mxCell id="84_0tGTxRUwSDMbbLnOq-57" value="" style="shape=tableRow;horizontal=0;startSize=0;swimlaneHead=0;swimlaneBody=0;fillColor=none;collapsible=0;dropTarget=0;points=[[0,0.5],[1,0.5]];portConstraint=eastwest;top=0;left=0;right=0;bottom=0;" parent="C-vyLk0tnHw3VtMMgP7b-2" vertex="1">
          <mxGeometry y="120" width="250" height="30" as="geometry" />
        </mxCell>
        <mxCell id="84_0tGTxRUwSDMbbLnOq-58" value="*" style="shape=partialRectangle;connectable=0;fillColor=none;top=0;left=0;bottom=0;right=0;editable=1;overflow=hidden;" parent="84_0tGTxRUwSDMbbLnOq-57" vertex="1">
          <mxGeometry width="30" height="30" as="geometry">
            <mxRectangle width="30" height="30" as="alternateBounds" />
          </mxGeometry>
        </mxCell>
        <mxCell id="84_0tGTxRUwSDMbbLnOq-59" value="rol ENUM(administrador o cliente)" style="shape=partialRectangle;connectable=0;fillColor=none;top=0;left=0;bottom=0;right=0;align=left;spacingLeft=6;overflow=hidden;" parent="84_0tGTxRUwSDMbbLnOq-57" vertex="1">
          <mxGeometry x="30" width="220" height="30" as="geometry">
            <mxRectangle width="220" height="30" as="alternateBounds" />
          </mxGeometry>
        </mxCell>
        <mxCell id="84_0tGTxRUwSDMbbLnOq-60" value="" style="shape=tableRow;horizontal=0;startSize=0;swimlaneHead=0;swimlaneBody=0;fillColor=none;collapsible=0;dropTarget=0;points=[[0,0.5],[1,0.5]];portConstraint=eastwest;top=0;left=0;right=0;bottom=0;" parent="C-vyLk0tnHw3VtMMgP7b-2" vertex="1">
          <mxGeometry y="150" width="250" height="30" as="geometry" />
        </mxCell>
        <mxCell id="84_0tGTxRUwSDMbbLnOq-61" value="*" style="shape=partialRectangle;connectable=0;fillColor=none;top=0;left=0;bottom=0;right=0;editable=1;overflow=hidden;" parent="84_0tGTxRUwSDMbbLnOq-60" vertex="1">
          <mxGeometry width="30" height="30" as="geometry">
            <mxRectangle width="30" height="30" as="alternateBounds" />
          </mxGeometry>
        </mxCell>
        <mxCell id="84_0tGTxRUwSDMbbLnOq-62" value="contraseÃ±a_hash" style="shape=partialRectangle;connectable=0;fillColor=none;top=0;left=0;bottom=0;right=0;align=left;spacingLeft=6;overflow=hidden;" parent="84_0tGTxRUwSDMbbLnOq-60" vertex="1">
          <mxGeometry x="30" width="220" height="30" as="geometry">
            <mxRectangle width="220" height="30" as="alternateBounds" />
          </mxGeometry>
        </mxCell>
        <mxCell id="84_0tGTxRUwSDMbbLnOq-72" value="" style="shape=tableRow;horizontal=0;startSize=0;swimlaneHead=0;swimlaneBody=0;fillColor=none;collapsible=0;dropTarget=0;points=[[0,0.5],[1,0.5]];portConstraint=eastwest;top=0;left=0;right=0;bottom=0;" parent="C-vyLk0tnHw3VtMMgP7b-2" vertex="1">
          <mxGeometry y="180" width="250" height="30" as="geometry" />
        </mxCell>
        <mxCell id="84_0tGTxRUwSDMbbLnOq-73" value="*" style="shape=partialRectangle;connectable=0;fillColor=none;top=0;left=0;bottom=0;right=0;editable=1;overflow=hidden;" parent="84_0tGTxRUwSDMbbLnOq-72" vertex="1">
          <mxGeometry width="30" height="30" as="geometry">
            <mxRectangle width="30" height="30" as="alternateBounds" />
          </mxGeometry>
        </mxCell>
        <mxCell id="84_0tGTxRUwSDMbbLnOq-74" value="nombre_usuario VARCHAR(100)" style="shape=partialRectangle;connectable=0;fillColor=none;top=0;left=0;bottom=0;right=0;align=left;spacingLeft=6;overflow=hidden;" parent="84_0tGTxRUwSDMbbLnOq-72" vertex="1">
          <mxGeometry x="30" width="220" height="30" as="geometry">
            <mxRectangle width="220" height="30" as="alternateBounds" />
          </mxGeometry>
        </mxCell>
        <mxCell id="C-vyLk0tnHw3VtMMgP7b-9" value="" style="shape=partialRectangle;collapsible=0;dropTarget=0;pointerEvents=0;fillColor=none;points=[[0,0.5],[1,0.5]];portConstraint=eastwest;top=0;left=0;right=0;bottom=0;" parent="C-vyLk0tnHw3VtMMgP7b-2" vertex="1">
          <mxGeometry y="210" width="250" height="30" as="geometry" />
        </mxCell>
        <mxCell id="C-vyLk0tnHw3VtMMgP7b-10" value="O" style="shape=partialRectangle;overflow=hidden;connectable=0;fillColor=none;top=0;left=0;bottom=0;right=0;" parent="C-vyLk0tnHw3VtMMgP7b-9" vertex="1">
          <mxGeometry width="30" height="30" as="geometry">
            <mxRectangle width="30" height="30" as="alternateBounds" />
          </mxGeometry>
        </mxCell>
        <mxCell id="C-vyLk0tnHw3VtMMgP7b-11" value="apellidos_usuairo VARCHAR (200)" style="shape=partialRectangle;overflow=hidden;connectable=0;fillColor=none;top=0;left=0;bottom=0;right=0;align=left;spacingLeft=6;" parent="C-vyLk0tnHw3VtMMgP7b-9" vertex="1">
          <mxGeometry x="30" width="220" height="30" as="geometry">
            <mxRectangle width="220" height="30" as="alternateBounds" />
          </mxGeometry>
        </mxCell>
        <mxCell id="84_0tGTxRUwSDMbbLnOq-69" value="" style="shape=tableRow;horizontal=0;startSize=0;swimlaneHead=0;swimlaneBody=0;fillColor=none;collapsible=0;dropTarget=0;points=[[0,0.5],[1,0.5]];portConstraint=eastwest;top=0;left=0;right=0;bottom=0;" parent="C-vyLk0tnHw3VtMMgP7b-2" vertex="1">
          <mxGeometry y="240" width="250" height="30" as="geometry" />
        </mxCell>
        <mxCell id="84_0tGTxRUwSDMbbLnOq-70" value="*" style="shape=partialRectangle;connectable=0;fillColor=none;top=0;left=0;bottom=0;right=0;editable=1;overflow=hidden;" parent="84_0tGTxRUwSDMbbLnOq-69" vertex="1">
          <mxGeometry width="30" height="30" as="geometry">
            <mxRectangle width="30" height="30" as="alternateBounds" />
          </mxGeometry>
        </mxCell>
        <mxCell id="84_0tGTxRUwSDMbbLnOq-71" value="activo BOOLEAN" style="shape=partialRectangle;connectable=0;fillColor=none;top=0;left=0;bottom=0;right=0;align=left;spacingLeft=6;overflow=hidden;" parent="84_0tGTxRUwSDMbbLnOq-69" vertex="1">
          <mxGeometry x="30" width="220" height="30" as="geometry">
            <mxRectangle width="220" height="30" as="alternateBounds" />
          </mxGeometry>
        </mxCell>
        <mxCell id="84_0tGTxRUwSDMbbLnOq-129" value="" style="shape=tableRow;horizontal=0;startSize=0;swimlaneHead=0;swimlaneBody=0;fillColor=none;collapsible=0;dropTarget=0;points=[[0,0.5],[1,0.5]];portConstraint=eastwest;top=0;left=0;right=0;bottom=0;" parent="C-vyLk0tnHw3VtMMgP7b-2" vertex="1">
          <mxGeometry y="270" width="250" height="30" as="geometry" />
        </mxCell>
        <mxCell id="84_0tGTxRUwSDMbbLnOq-130" value="*" style="shape=partialRectangle;connectable=0;fillColor=none;top=0;left=0;bottom=0;right=0;editable=1;overflow=hidden;" parent="84_0tGTxRUwSDMbbLnOq-129" vertex="1">
          <mxGeometry width="30" height="30" as="geometry">
            <mxRectangle width="30" height="30" as="alternateBounds" />
          </mxGeometry>
        </mxCell>
        <mxCell id="84_0tGTxRUwSDMbbLnOq-131" value="fecha_creacion_usuario TIMESTAMP" style="shape=partialRectangle;connectable=0;fillColor=none;top=0;left=0;bottom=0;right=0;align=left;spacingLeft=6;overflow=hidden;" parent="84_0tGTxRUwSDMbbLnOq-129" vertex="1">
          <mxGeometry x="30" width="220" height="30" as="geometry">
            <mxRectangle width="220" height="30" as="alternateBounds" />
          </mxGeometry>
        </mxCell>
        <mxCell id="C-vyLk0tnHw3VtMMgP7b-13" value="Contacto" style="shape=table;startSize=30;container=1;collapsible=1;childLayout=tableLayout;fixedRows=1;rowLines=0;fontStyle=1;align=center;resizeLast=1;fillColor=#a0522d;fontColor=#ffffff;strokeColor=#6D1F00;" parent="1" vertex="1">
          <mxGeometry x="889" y="499" width="250" height="220" as="geometry" />
        </mxCell>
        <mxCell id="C-vyLk0tnHw3VtMMgP7b-14" value="" style="shape=partialRectangle;collapsible=0;dropTarget=0;pointerEvents=0;fillColor=none;points=[[0,0.5],[1,0.5]];portConstraint=eastwest;top=0;left=0;right=0;bottom=1;" parent="C-vyLk0tnHw3VtMMgP7b-13" vertex="1">
          <mxGeometry y="30" width="250" height="30" as="geometry" />
        </mxCell>
        <mxCell id="C-vyLk0tnHw3VtMMgP7b-15" value="PK" style="shape=partialRectangle;overflow=hidden;connectable=0;fillColor=none;top=0;left=0;bottom=0;right=0;fontStyle=1;" parent="C-vyLk0tnHw3VtMMgP7b-14" vertex="1">
          <mxGeometry width="30" height="30" as="geometry">
            <mxRectangle width="30" height="30" as="alternateBounds" />
          </mxGeometry>
        </mxCell>
        <mxCell id="C-vyLk0tnHw3VtMMgP7b-16" value="contacto_id auto inc unsigned" style="shape=partialRectangle;overflow=hidden;connectable=0;fillColor=none;top=0;left=0;bottom=0;right=0;align=left;spacingLeft=6;fontStyle=5;" parent="C-vyLk0tnHw3VtMMgP7b-14" vertex="1">
          <mxGeometry x="30" width="220" height="30" as="geometry">
            <mxRectangle width="220" height="30" as="alternateBounds" />
          </mxGeometry>
        </mxCell>
        <mxCell id="Bu5DhKh5VEppCecuc6ry-7" value="" style="shape=tableRow;horizontal=0;startSize=0;swimlaneHead=0;swimlaneBody=0;fillColor=#f8cecc;collapsible=0;dropTarget=0;points=[[0,0.5],[1,0.5]];portConstraint=eastwest;top=0;left=0;right=0;bottom=0;strokeColor=#b85450;" vertex="1" parent="C-vyLk0tnHw3VtMMgP7b-13">
          <mxGeometry y="60" width="250" height="30" as="geometry" />
        </mxCell>
        <mxCell id="Bu5DhKh5VEppCecuc6ry-8" value="FK" style="shape=partialRectangle;connectable=0;fillColor=none;top=0;left=0;bottom=0;right=0;fontStyle=0;overflow=hidden;whiteSpace=wrap;html=1;" vertex="1" parent="Bu5DhKh5VEppCecuc6ry-7">
          <mxGeometry width="30" height="30" as="geometry">
            <mxRectangle width="30" height="30" as="alternateBounds" />
          </mxGeometry>
        </mxCell>
        <mxCell id="Bu5DhKh5VEppCecuc6ry-9" value="usuario_id" style="shape=partialRectangle;connectable=0;fillColor=none;top=0;left=0;bottom=0;right=0;align=left;spacingLeft=6;fontStyle=0;overflow=hidden;whiteSpace=wrap;html=1;" vertex="1" parent="Bu5DhKh5VEppCecuc6ry-7">
          <mxGeometry x="30" width="220" height="30" as="geometry">
            <mxRectangle width="220" height="30" as="alternateBounds" />
          </mxGeometry>
        </mxCell>
        <mxCell id="C-vyLk0tnHw3VtMMgP7b-17" value="" style="shape=partialRectangle;collapsible=0;dropTarget=0;pointerEvents=0;fillColor=none;points=[[0,0.5],[1,0.5]];portConstraint=eastwest;top=0;left=0;right=0;bottom=0;" parent="C-vyLk0tnHw3VtMMgP7b-13" vertex="1">
          <mxGeometry y="90" width="250" height="30" as="geometry" />
        </mxCell>
        <mxCell id="C-vyLk0tnHw3VtMMgP7b-18" value="O" style="shape=partialRectangle;overflow=hidden;connectable=0;fillColor=none;top=0;left=0;bottom=0;right=0;" parent="C-vyLk0tnHw3VtMMgP7b-17" vertex="1">
          <mxGeometry width="30" height="30" as="geometry">
            <mxRectangle width="30" height="30" as="alternateBounds" />
          </mxGeometry>
        </mxCell>
        <mxCell id="C-vyLk0tnHw3VtMMgP7b-19" value="telefono VARCHAR(9)" style="shape=partialRectangle;overflow=hidden;connectable=0;fillColor=none;top=0;left=0;bottom=0;right=0;align=left;spacingLeft=6;" parent="C-vyLk0tnHw3VtMMgP7b-17" vertex="1">
          <mxGeometry x="30" width="220" height="30" as="geometry">
            <mxRectangle width="220" height="30" as="alternateBounds" />
          </mxGeometry>
        </mxCell>
        <mxCell id="C-vyLk0tnHw3VtMMgP7b-20" value="" style="shape=partialRectangle;collapsible=0;dropTarget=0;pointerEvents=0;fillColor=none;points=[[0,0.5],[1,0.5]];portConstraint=eastwest;top=0;left=0;right=0;bottom=0;" parent="C-vyLk0tnHw3VtMMgP7b-13" vertex="1">
          <mxGeometry y="120" width="250" height="30" as="geometry" />
        </mxCell>
        <mxCell id="C-vyLk0tnHw3VtMMgP7b-21" value="O" style="shape=partialRectangle;overflow=hidden;connectable=0;fillColor=none;top=0;left=0;bottom=0;right=0;" parent="C-vyLk0tnHw3VtMMgP7b-20" vertex="1">
          <mxGeometry width="30" height="30" as="geometry">
            <mxRectangle width="30" height="30" as="alternateBounds" />
          </mxGeometry>
        </mxCell>
        <mxCell id="C-vyLk0tnHw3VtMMgP7b-22" value="email VARCHAR (150)" style="shape=partialRectangle;overflow=hidden;connectable=0;fillColor=none;top=0;left=0;bottom=0;right=0;align=left;spacingLeft=6;" parent="C-vyLk0tnHw3VtMMgP7b-20" vertex="1">
          <mxGeometry x="30" width="220" height="30" as="geometry">
            <mxRectangle width="220" height="30" as="alternateBounds" />
          </mxGeometry>
        </mxCell>
        <mxCell id="84_0tGTxRUwSDMbbLnOq-78" value="" style="shape=tableRow;horizontal=0;startSize=0;swimlaneHead=0;swimlaneBody=0;fillColor=none;collapsible=0;dropTarget=0;points=[[0,0.5],[1,0.5]];portConstraint=eastwest;top=0;left=0;right=0;bottom=0;" parent="C-vyLk0tnHw3VtMMgP7b-13" vertex="1">
          <mxGeometry y="150" width="250" height="30" as="geometry" />
        </mxCell>
        <mxCell id="84_0tGTxRUwSDMbbLnOq-79" value="*" style="shape=partialRectangle;connectable=0;fillColor=none;top=0;left=0;bottom=0;right=0;editable=1;overflow=hidden;" parent="84_0tGTxRUwSDMbbLnOq-78" vertex="1">
          <mxGeometry width="30" height="30" as="geometry">
            <mxRectangle width="30" height="30" as="alternateBounds" />
          </mxGeometry>
        </mxCell>
        <mxCell id="84_0tGTxRUwSDMbbLnOq-80" value="nombre_contacto VARCHAR (50)" style="shape=partialRectangle;connectable=0;fillColor=none;top=0;left=0;bottom=0;right=0;align=left;spacingLeft=6;overflow=hidden;" parent="84_0tGTxRUwSDMbbLnOq-78" vertex="1">
          <mxGeometry x="30" width="220" height="30" as="geometry">
            <mxRectangle width="220" height="30" as="alternateBounds" />
          </mxGeometry>
        </mxCell>
        <mxCell id="84_0tGTxRUwSDMbbLnOq-75" value="" style="shape=tableRow;horizontal=0;startSize=0;swimlaneHead=0;swimlaneBody=0;fillColor=none;collapsible=0;dropTarget=0;points=[[0,0.5],[1,0.5]];portConstraint=eastwest;top=0;left=0;right=0;bottom=0;" parent="C-vyLk0tnHw3VtMMgP7b-13" vertex="1">
          <mxGeometry y="180" width="250" height="30" as="geometry" />
        </mxCell>
        <mxCell id="84_0tGTxRUwSDMbbLnOq-76" value="O" style="shape=partialRectangle;connectable=0;fillColor=none;top=0;left=0;bottom=0;right=0;editable=1;overflow=hidden;" parent="84_0tGTxRUwSDMbbLnOq-75" vertex="1">
          <mxGeometry width="30" height="30" as="geometry">
            <mxRectangle width="30" height="30" as="alternateBounds" />
          </mxGeometry>
        </mxCell>
        <mxCell id="84_0tGTxRUwSDMbbLnOq-77" value="descripciÃ³n_contacto VARCHAR(255)" style="shape=partialRectangle;connectable=0;fillColor=none;top=0;left=0;bottom=0;right=0;align=left;spacingLeft=6;overflow=hidden;" parent="84_0tGTxRUwSDMbbLnOq-75" vertex="1">
          <mxGeometry x="30" width="220" height="30" as="geometry">
            <mxRectangle width="220" height="30" as="alternateBounds" />
          </mxGeometry>
        </mxCell>
        <mxCell id="C-vyLk0tnHw3VtMMgP7b-23" value="Empresa" style="shape=table;startSize=30;container=1;collapsible=1;childLayout=tableLayout;fixedRows=1;rowLines=0;fontStyle=1;align=center;resizeLast=1;fillColor=#dae8fc;strokeColor=#6c8ebf;" parent="1" vertex="1">
          <mxGeometry x="435" y="170" width="252.75" height="245.75" as="geometry" />
        </mxCell>
        <mxCell id="C-vyLk0tnHw3VtMMgP7b-24" value="" style="shape=partialRectangle;collapsible=0;dropTarget=0;pointerEvents=0;fillColor=none;points=[[0,0.5],[1,0.5]];portConstraint=eastwest;top=0;left=0;right=0;bottom=1;" parent="C-vyLk0tnHw3VtMMgP7b-23" vertex="1">
          <mxGeometry y="30" width="252.75" height="30" as="geometry" />
        </mxCell>
        <mxCell id="C-vyLk0tnHw3VtMMgP7b-25" value="PK" style="shape=partialRectangle;overflow=hidden;connectable=0;fillColor=none;top=0;left=0;bottom=0;right=0;fontStyle=1;" parent="C-vyLk0tnHw3VtMMgP7b-24" vertex="1">
          <mxGeometry width="30" height="30" as="geometry">
            <mxRectangle width="30" height="30" as="alternateBounds" />
          </mxGeometry>
        </mxCell>
        <mxCell id="C-vyLk0tnHw3VtMMgP7b-26" value="empresa_id int auto inc unsigned" style="shape=partialRectangle;overflow=hidden;connectable=0;fillColor=none;top=0;left=0;bottom=0;right=0;align=left;spacingLeft=6;fontStyle=5;" parent="C-vyLk0tnHw3VtMMgP7b-24" vertex="1">
          <mxGeometry x="30" width="222.75" height="30" as="geometry">
            <mxRectangle width="222.75" height="30" as="alternateBounds" />
          </mxGeometry>
        </mxCell>
        <mxCell id="C-vyLk0tnHw3VtMMgP7b-27" value="" style="shape=partialRectangle;collapsible=0;dropTarget=0;pointerEvents=0;fillColor=none;points=[[0,0.5],[1,0.5]];portConstraint=eastwest;top=0;left=0;right=0;bottom=0;" parent="C-vyLk0tnHw3VtMMgP7b-23" vertex="1">
          <mxGeometry y="60" width="252.75" height="26" as="geometry" />
        </mxCell>
        <mxCell id="C-vyLk0tnHw3VtMMgP7b-28" value="*" style="shape=partialRectangle;overflow=hidden;connectable=0;fillColor=none;top=0;left=0;bottom=0;right=0;" parent="C-vyLk0tnHw3VtMMgP7b-27" vertex="1">
          <mxGeometry width="30" height="26" as="geometry">
            <mxRectangle width="30" height="26" as="alternateBounds" />
          </mxGeometry>
        </mxCell>
        <mxCell id="C-vyLk0tnHw3VtMMgP7b-29" value="nombre VARCHAR (100)" style="shape=partialRectangle;overflow=hidden;connectable=0;fillColor=none;top=0;left=0;bottom=0;right=0;align=left;spacingLeft=6;" parent="C-vyLk0tnHw3VtMMgP7b-27" vertex="1">
          <mxGeometry x="30" width="222.75" height="26" as="geometry">
            <mxRectangle width="222.75" height="26" as="alternateBounds" />
          </mxGeometry>
        </mxCell>
        <mxCell id="84_0tGTxRUwSDMbbLnOq-45" value="" style="shape=tableRow;horizontal=0;startSize=0;swimlaneHead=0;swimlaneBody=0;fillColor=none;collapsible=0;dropTarget=0;points=[[0,0.5],[1,0.5]];portConstraint=eastwest;top=0;left=0;right=0;bottom=0;" parent="C-vyLk0tnHw3VtMMgP7b-23" vertex="1">
          <mxGeometry y="86" width="252.75" height="30" as="geometry" />
        </mxCell>
        <mxCell id="84_0tGTxRUwSDMbbLnOq-46" value="o" style="shape=partialRectangle;connectable=0;fillColor=none;top=0;left=0;bottom=0;right=0;editable=1;overflow=hidden;" parent="84_0tGTxRUwSDMbbLnOq-45" vertex="1">
          <mxGeometry width="30" height="30" as="geometry">
            <mxRectangle width="30" height="30" as="alternateBounds" />
          </mxGeometry>
        </mxCell>
        <mxCell id="84_0tGTxRUwSDMbbLnOq-47" value="descripciÃ³n_empresa VARCHAR(255)" style="shape=partialRectangle;connectable=0;fillColor=none;top=0;left=0;bottom=0;right=0;align=left;spacingLeft=6;overflow=hidden;" parent="84_0tGTxRUwSDMbbLnOq-45" vertex="1">
          <mxGeometry x="30" width="222.75" height="30" as="geometry">
            <mxRectangle width="222.75" height="30" as="alternateBounds" />
          </mxGeometry>
        </mxCell>
        <mxCell id="84_0tGTxRUwSDMbbLnOq-48" value="" style="shape=tableRow;horizontal=0;startSize=0;swimlaneHead=0;swimlaneBody=0;fillColor=none;collapsible=0;dropTarget=0;points=[[0,0.5],[1,0.5]];portConstraint=eastwest;top=0;left=0;right=0;bottom=0;" parent="C-vyLk0tnHw3VtMMgP7b-23" vertex="1">
          <mxGeometry y="116" width="252.75" height="30" as="geometry" />
        </mxCell>
        <mxCell id="84_0tGTxRUwSDMbbLnOq-49" value="o" style="shape=partialRectangle;connectable=0;fillColor=none;top=0;left=0;bottom=0;right=0;editable=1;overflow=hidden;" parent="84_0tGTxRUwSDMbbLnOq-48" vertex="1">
          <mxGeometry width="30" height="30" as="geometry">
            <mxRectangle width="30" height="30" as="alternateBounds" />
          </mxGeometry>
        </mxCell>
        <mxCell id="84_0tGTxRUwSDMbbLnOq-50" value="email VARCHAR(150)" style="shape=partialRectangle;connectable=0;fillColor=none;top=0;left=0;bottom=0;right=0;align=left;spacingLeft=6;overflow=hidden;" parent="84_0tGTxRUwSDMbbLnOq-48" vertex="1">
          <mxGeometry x="30" width="222.75" height="30" as="geometry">
            <mxRectangle width="222.75" height="30" as="alternateBounds" />
          </mxGeometry>
        </mxCell>
        <mxCell id="84_0tGTxRUwSDMbbLnOq-51" value="" style="shape=tableRow;horizontal=0;startSize=0;swimlaneHead=0;swimlaneBody=0;fillColor=none;collapsible=0;dropTarget=0;points=[[0,0.5],[1,0.5]];portConstraint=eastwest;top=0;left=0;right=0;bottom=0;" parent="C-vyLk0tnHw3VtMMgP7b-23" vertex="1">
          <mxGeometry y="146" width="252.75" height="30" as="geometry" />
        </mxCell>
        <mxCell id="84_0tGTxRUwSDMbbLnOq-52" value="*" style="shape=partialRectangle;connectable=0;fillColor=none;top=0;left=0;bottom=0;right=0;editable=1;overflow=hidden;" parent="84_0tGTxRUwSDMbbLnOq-51" vertex="1">
          <mxGeometry width="30" height="30" as="geometry">
            <mxRectangle width="30" height="30" as="alternateBounds" />
          </mxGeometry>
        </mxCell>
        <mxCell id="84_0tGTxRUwSDMbbLnOq-53" value="telefono VARCHAR(9)" style="shape=partialRectangle;connectable=0;fillColor=none;top=0;left=0;bottom=0;right=0;align=left;spacingLeft=6;overflow=hidden;" parent="84_0tGTxRUwSDMbbLnOq-51" vertex="1">
          <mxGeometry x="30" width="222.75" height="30" as="geometry">
            <mxRectangle width="222.75" height="30" as="alternateBounds" />
          </mxGeometry>
        </mxCell>
        <mxCell id="84_0tGTxRUwSDMbbLnOq-54" value="" style="shape=tableRow;horizontal=0;startSize=0;swimlaneHead=0;swimlaneBody=0;fillColor=none;collapsible=0;dropTarget=0;points=[[0,0.5],[1,0.5]];portConstraint=eastwest;top=0;left=0;right=0;bottom=0;" parent="C-vyLk0tnHw3VtMMgP7b-23" vertex="1">
          <mxGeometry y="176" width="252.75" height="30" as="geometry" />
        </mxCell>
        <mxCell id="84_0tGTxRUwSDMbbLnOq-55" value="*" style="shape=partialRectangle;connectable=0;fillColor=none;top=0;left=0;bottom=0;right=0;editable=1;overflow=hidden;" parent="84_0tGTxRUwSDMbbLnOq-54" vertex="1">
          <mxGeometry width="30" height="30" as="geometry">
            <mxRectangle width="30" height="30" as="alternateBounds" />
          </mxGeometry>
        </mxCell>
        <mxCell id="84_0tGTxRUwSDMbbLnOq-56" value="activo BOOLEAN" style="shape=partialRectangle;connectable=0;fillColor=none;top=0;left=0;bottom=0;right=0;align=left;spacingLeft=6;overflow=hidden;" parent="84_0tGTxRUwSDMbbLnOq-54" vertex="1">
          <mxGeometry x="30" width="222.75" height="30" as="geometry">
            <mxRectangle width="222.75" height="30" as="alternateBounds" />
          </mxGeometry>
        </mxCell>
        <mxCell id="84_0tGTxRUwSDMbbLnOq-126" value="" style="shape=tableRow;horizontal=0;startSize=0;swimlaneHead=0;swimlaneBody=0;fillColor=none;collapsible=0;dropTarget=0;points=[[0,0.5],[1,0.5]];portConstraint=eastwest;top=0;left=0;right=0;bottom=0;" parent="C-vyLk0tnHw3VtMMgP7b-23" vertex="1">
          <mxGeometry y="206" width="252.75" height="30" as="geometry" />
        </mxCell>
        <mxCell id="84_0tGTxRUwSDMbbLnOq-127" value="*" style="shape=partialRectangle;connectable=0;fillColor=none;top=0;left=0;bottom=0;right=0;editable=1;overflow=hidden;" parent="84_0tGTxRUwSDMbbLnOq-126" vertex="1">
          <mxGeometry width="30" height="30" as="geometry">
            <mxRectangle width="30" height="30" as="alternateBounds" />
          </mxGeometry>
        </mxCell>
        <mxCell id="84_0tGTxRUwSDMbbLnOq-128" value="fecha_creacion_empresal TIMESTAMP" style="shape=partialRectangle;connectable=0;fillColor=none;top=0;left=0;bottom=0;right=0;align=left;spacingLeft=6;overflow=hidden;" parent="84_0tGTxRUwSDMbbLnOq-126" vertex="1">
          <mxGeometry x="30" width="222.75" height="30" as="geometry">
            <mxRectangle width="222.75" height="30" as="alternateBounds" />
          </mxGeometry>
        </mxCell>
        <mxCell id="84_0tGTxRUwSDMbbLnOq-1" value="&lt;h1 style=&quot;font-size: 25px;&quot;&gt;Modelo RelaciÃ³n&lt;/h1&gt;" style="text;html=1;strokeColor=none;fillColor=none;align=center;verticalAlign=middle;whiteSpace=wrap;rounded=0;" parent="1" vertex="1">
          <mxGeometry x="463" y="88" width="209.63" height="30" as="geometry" />
        </mxCell>
        <mxCell id="84_0tGTxRUwSDMbbLnOq-2" value="Briefing_web" style="shape=table;startSize=30;container=1;collapsible=1;childLayout=tableLayout;fixedRows=1;rowLines=0;fontStyle=1;align=center;resizeLast=1;fillColor=#76608a;fontColor=#ffffff;strokeColor=#432D57;" parent="1" vertex="1">
          <mxGeometry x="841" y="835" width="306.75" height="489.5" as="geometry" />
        </mxCell>
        <mxCell id="84_0tGTxRUwSDMbbLnOq-3" value="" style="shape=partialRectangle;collapsible=0;dropTarget=0;pointerEvents=0;fillColor=none;points=[[0,0.5],[1,0.5]];portConstraint=eastwest;top=0;left=0;right=0;bottom=1;" parent="84_0tGTxRUwSDMbbLnOq-2" vertex="1">
          <mxGeometry y="30" width="306.75" height="30" as="geometry" />
        </mxCell>
        <mxCell id="84_0tGTxRUwSDMbbLnOq-4" value="PK" style="shape=partialRectangle;overflow=hidden;connectable=0;fillColor=none;top=0;left=0;bottom=0;right=0;fontStyle=1;" parent="84_0tGTxRUwSDMbbLnOq-3" vertex="1">
          <mxGeometry width="30" height="30" as="geometry">
            <mxRectangle width="30" height="30" as="alternateBounds" />
          </mxGeometry>
        </mxCell>
        <mxCell id="84_0tGTxRUwSDMbbLnOq-5" value="briefing_web_id int auto inc unsigned" style="shape=partialRectangle;overflow=hidden;connectable=0;fillColor=none;top=0;left=0;bottom=0;right=0;align=left;spacingLeft=6;fontStyle=5;" parent="84_0tGTxRUwSDMbbLnOq-3" vertex="1">
          <mxGeometry x="30" width="276.75" height="30" as="geometry">
            <mxRectangle width="276.75" height="30" as="alternateBounds" />
          </mxGeometry>
        </mxCell>
        <mxCell id="Bu5DhKh5VEppCecuc6ry-16" value="" style="shape=tableRow;horizontal=0;startSize=0;swimlaneHead=0;swimlaneBody=0;fillColor=#f8cecc;collapsible=0;dropTarget=0;points=[[0,0.5],[1,0.5]];portConstraint=eastwest;top=0;left=0;right=0;bottom=0;strokeColor=#b85450;" vertex="1" parent="84_0tGTxRUwSDMbbLnOq-2">
          <mxGeometry y="60" width="306.75" height="30" as="geometry" />
        </mxCell>
        <mxCell id="Bu5DhKh5VEppCecuc6ry-17" value="FK" style="shape=partialRectangle;connectable=0;fillColor=none;top=0;left=0;bottom=0;right=0;fontStyle=0;overflow=hidden;whiteSpace=wrap;html=1;" vertex="1" parent="Bu5DhKh5VEppCecuc6ry-16">
          <mxGeometry width="30" height="30" as="geometry">
            <mxRectangle width="30" height="30" as="alternateBounds" />
          </mxGeometry>
        </mxCell>
        <mxCell id="Bu5DhKh5VEppCecuc6ry-18" value="usuario_id" style="shape=partialRectangle;connectable=0;fillColor=none;top=0;left=0;bottom=0;right=0;align=left;spacingLeft=6;fontStyle=0;overflow=hidden;whiteSpace=wrap;html=1;" vertex="1" parent="Bu5DhKh5VEppCecuc6ry-16">
          <mxGeometry x="30" width="276.75" height="30" as="geometry">
            <mxRectangle width="276.75" height="30" as="alternateBounds" />
          </mxGeometry>
        </mxCell>
        <mxCell id="84_0tGTxRUwSDMbbLnOq-9" value="" style="shape=partialRectangle;collapsible=0;dropTarget=0;pointerEvents=0;fillColor=none;points=[[0,0.5],[1,0.5]];portConstraint=eastwest;top=0;left=0;right=0;bottom=0;" parent="84_0tGTxRUwSDMbbLnOq-2" vertex="1">
          <mxGeometry y="90" width="306.75" height="30" as="geometry" />
        </mxCell>
        <mxCell id="84_0tGTxRUwSDMbbLnOq-10" value="*" style="shape=partialRectangle;overflow=hidden;connectable=0;fillColor=none;top=0;left=0;bottom=0;right=0;" parent="84_0tGTxRUwSDMbbLnOq-9" vertex="1">
          <mxGeometry width="30" height="30" as="geometry">
            <mxRectangle width="30" height="30" as="alternateBounds" />
          </mxGeometry>
        </mxCell>
        <mxCell id="84_0tGTxRUwSDMbbLnOq-11" value="descripcion_empresa VARCHAR(500)" style="shape=partialRectangle;overflow=hidden;connectable=0;fillColor=none;top=0;left=0;bottom=0;right=0;align=left;spacingLeft=6;" parent="84_0tGTxRUwSDMbbLnOq-9" vertex="1">
          <mxGeometry x="30" width="276.75" height="30" as="geometry">
            <mxRectangle width="276.75" height="30" as="alternateBounds" />
          </mxGeometry>
        </mxCell>
        <mxCell id="84_0tGTxRUwSDMbbLnOq-84" value="" style="shape=tableRow;horizontal=0;startSize=0;swimlaneHead=0;swimlaneBody=0;fillColor=none;collapsible=0;dropTarget=0;points=[[0,0.5],[1,0.5]];portConstraint=eastwest;top=0;left=0;right=0;bottom=0;" parent="84_0tGTxRUwSDMbbLnOq-2" vertex="1">
          <mxGeometry y="120" width="306.75" height="30" as="geometry" />
        </mxCell>
        <mxCell id="84_0tGTxRUwSDMbbLnOq-85" value="O" style="shape=partialRectangle;connectable=0;fillColor=none;top=0;left=0;bottom=0;right=0;editable=1;overflow=hidden;" parent="84_0tGTxRUwSDMbbLnOq-84" vertex="1">
          <mxGeometry width="30" height="30" as="geometry">
            <mxRectangle width="30" height="30" as="alternateBounds" />
          </mxGeometry>
        </mxCell>
        <mxCell id="84_0tGTxRUwSDMbbLnOq-86" value="descripcion_proyecto VARCHAR (500)" style="shape=partialRectangle;connectable=0;fillColor=none;top=0;left=0;bottom=0;right=0;align=left;spacingLeft=6;overflow=hidden;" parent="84_0tGTxRUwSDMbbLnOq-84" vertex="1">
          <mxGeometry x="30" width="276.75" height="30" as="geometry">
            <mxRectangle width="276.75" height="30" as="alternateBounds" />
          </mxGeometry>
        </mxCell>
        <mxCell id="84_0tGTxRUwSDMbbLnOq-90" value="" style="shape=tableRow;horizontal=0;startSize=0;swimlaneHead=0;swimlaneBody=0;fillColor=none;collapsible=0;dropTarget=0;points=[[0,0.5],[1,0.5]];portConstraint=eastwest;top=0;left=0;right=0;bottom=0;" parent="84_0tGTxRUwSDMbbLnOq-2" vertex="1">
          <mxGeometry y="150" width="306.75" height="30" as="geometry" />
        </mxCell>
        <mxCell id="84_0tGTxRUwSDMbbLnOq-91" value="*" style="shape=partialRectangle;connectable=0;fillColor=none;top=0;left=0;bottom=0;right=0;editable=1;overflow=hidden;" parent="84_0tGTxRUwSDMbbLnOq-90" vertex="1">
          <mxGeometry width="30" height="30" as="geometry">
            <mxRectangle width="30" height="30" as="alternateBounds" />
          </mxGeometry>
        </mxCell>
        <mxCell id="84_0tGTxRUwSDMbbLnOq-92" value="productos_y_o_servicios VARCHAR (255)" style="shape=partialRectangle;connectable=0;fillColor=none;top=0;left=0;bottom=0;right=0;align=left;spacingLeft=6;overflow=hidden;" parent="84_0tGTxRUwSDMbbLnOq-90" vertex="1">
          <mxGeometry x="30" width="276.75" height="30" as="geometry">
            <mxRectangle width="276.75" height="30" as="alternateBounds" />
          </mxGeometry>
        </mxCell>
        <mxCell id="84_0tGTxRUwSDMbbLnOq-93" value="" style="shape=tableRow;horizontal=0;startSize=0;swimlaneHead=0;swimlaneBody=0;fillColor=none;collapsible=0;dropTarget=0;points=[[0,0.5],[1,0.5]];portConstraint=eastwest;top=0;left=0;right=0;bottom=0;" parent="84_0tGTxRUwSDMbbLnOq-2" vertex="1">
          <mxGeometry y="180" width="306.75" height="30" as="geometry" />
        </mxCell>
        <mxCell id="84_0tGTxRUwSDMbbLnOq-94" value="*" style="shape=partialRectangle;connectable=0;fillColor=none;top=0;left=0;bottom=0;right=0;editable=1;overflow=hidden;" parent="84_0tGTxRUwSDMbbLnOq-93" vertex="1">
          <mxGeometry width="30" height="30" as="geometry">
            <mxRectangle width="30" height="30" as="alternateBounds" />
          </mxGeometry>
        </mxCell>
        <mxCell id="84_0tGTxRUwSDMbbLnOq-95" value="competencia VARCHAR (255)" style="shape=partialRectangle;connectable=0;fillColor=none;top=0;left=0;bottom=0;right=0;align=left;spacingLeft=6;overflow=hidden;" parent="84_0tGTxRUwSDMbbLnOq-93" vertex="1">
          <mxGeometry x="30" width="276.75" height="30" as="geometry">
            <mxRectangle width="276.75" height="30" as="alternateBounds" />
          </mxGeometry>
        </mxCell>
        <mxCell id="84_0tGTxRUwSDMbbLnOq-99" value="" style="shape=tableRow;horizontal=0;startSize=0;swimlaneHead=0;swimlaneBody=0;fillColor=none;collapsible=0;dropTarget=0;points=[[0,0.5],[1,0.5]];portConstraint=eastwest;top=0;left=0;right=0;bottom=0;" parent="84_0tGTxRUwSDMbbLnOq-2" vertex="1">
          <mxGeometry y="210" width="306.75" height="30" as="geometry" />
        </mxCell>
        <mxCell id="84_0tGTxRUwSDMbbLnOq-100" value="*" style="shape=partialRectangle;connectable=0;fillColor=none;top=0;left=0;bottom=0;right=0;editable=1;overflow=hidden;" parent="84_0tGTxRUwSDMbbLnOq-99" vertex="1">
          <mxGeometry width="30" height="30" as="geometry">
            <mxRectangle width="30" height="30" as="alternateBounds" />
          </mxGeometry>
        </mxCell>
        <mxCell id="84_0tGTxRUwSDMbbLnOq-101" value="objetivos VARCHAR (500)" style="shape=partialRectangle;connectable=0;fillColor=none;top=0;left=0;bottom=0;right=0;align=left;spacingLeft=6;overflow=hidden;" parent="84_0tGTxRUwSDMbbLnOq-99" vertex="1">
          <mxGeometry x="30" width="276.75" height="30" as="geometry">
            <mxRectangle width="276.75" height="30" as="alternateBounds" />
          </mxGeometry>
        </mxCell>
        <mxCell id="84_0tGTxRUwSDMbbLnOq-111" value="" style="shape=tableRow;horizontal=0;startSize=0;swimlaneHead=0;swimlaneBody=0;fillColor=none;collapsible=0;dropTarget=0;points=[[0,0.5],[1,0.5]];portConstraint=eastwest;top=0;left=0;right=0;bottom=0;" parent="84_0tGTxRUwSDMbbLnOq-2" vertex="1">
          <mxGeometry y="240" width="306.75" height="30" as="geometry" />
        </mxCell>
        <mxCell id="84_0tGTxRUwSDMbbLnOq-112" value="O" style="shape=partialRectangle;connectable=0;fillColor=none;top=0;left=0;bottom=0;right=0;editable=1;overflow=hidden;" parent="84_0tGTxRUwSDMbbLnOq-111" vertex="1">
          <mxGeometry width="30" height="30" as="geometry">
            <mxRectangle width="30" height="30" as="alternateBounds" />
          </mxGeometry>
        </mxCell>
        <mxCell id="84_0tGTxRUwSDMbbLnOq-113" value="webs_ejemplo JSON" style="shape=partialRectangle;connectable=0;fillColor=none;top=0;left=0;bottom=0;right=0;align=left;spacingLeft=6;overflow=hidden;" parent="84_0tGTxRUwSDMbbLnOq-111" vertex="1">
          <mxGeometry x="30" width="276.75" height="30" as="geometry">
            <mxRectangle width="276.75" height="30" as="alternateBounds" />
          </mxGeometry>
        </mxCell>
        <mxCell id="84_0tGTxRUwSDMbbLnOq-108" value="" style="shape=tableRow;horizontal=0;startSize=0;swimlaneHead=0;swimlaneBody=0;fillColor=none;collapsible=0;dropTarget=0;points=[[0,0.5],[1,0.5]];portConstraint=eastwest;top=0;left=0;right=0;bottom=0;" parent="84_0tGTxRUwSDMbbLnOq-2" vertex="1">
          <mxGeometry y="270" width="306.75" height="30" as="geometry" />
        </mxCell>
        <mxCell id="84_0tGTxRUwSDMbbLnOq-109" value="*" style="shape=partialRectangle;connectable=0;fillColor=none;top=0;left=0;bottom=0;right=0;editable=1;overflow=hidden;" parent="84_0tGTxRUwSDMbbLnOq-108" vertex="1">
          <mxGeometry width="30" height="30" as="geometry">
            <mxRectangle width="30" height="30" as="alternateBounds" />
          </mxGeometry>
        </mxCell>
        <mxCell id="84_0tGTxRUwSDMbbLnOq-110" value="estructura_y_contenido TEXT" style="shape=partialRectangle;connectable=0;fillColor=none;top=0;left=0;bottom=0;right=0;align=left;spacingLeft=6;overflow=hidden;" parent="84_0tGTxRUwSDMbbLnOq-108" vertex="1">
          <mxGeometry x="30" width="276.75" height="30" as="geometry">
            <mxRectangle width="276.75" height="30" as="alternateBounds" />
          </mxGeometry>
        </mxCell>
        <mxCell id="84_0tGTxRUwSDMbbLnOq-102" value="" style="shape=tableRow;horizontal=0;startSize=0;swimlaneHead=0;swimlaneBody=0;fillColor=none;collapsible=0;dropTarget=0;points=[[0,0.5],[1,0.5]];portConstraint=eastwest;top=0;left=0;right=0;bottom=0;" parent="84_0tGTxRUwSDMbbLnOq-2" vertex="1">
          <mxGeometry y="300" width="306.75" height="30" as="geometry" />
        </mxCell>
        <mxCell id="84_0tGTxRUwSDMbbLnOq-103" value="*" style="shape=partialRectangle;connectable=0;fillColor=none;top=0;left=0;bottom=0;right=0;editable=1;overflow=hidden;" parent="84_0tGTxRUwSDMbbLnOq-102" vertex="1">
          <mxGeometry width="30" height="30" as="geometry">
            <mxRectangle width="30" height="30" as="alternateBounds" />
          </mxGeometry>
        </mxCell>
        <mxCell id="84_0tGTxRUwSDMbbLnOq-104" value="funciones TEXT" style="shape=partialRectangle;connectable=0;fillColor=none;top=0;left=0;bottom=0;right=0;align=left;spacingLeft=6;overflow=hidden;" parent="84_0tGTxRUwSDMbbLnOq-102" vertex="1">
          <mxGeometry x="30" width="276.75" height="30" as="geometry">
            <mxRectangle width="276.75" height="30" as="alternateBounds" />
          </mxGeometry>
        </mxCell>
        <mxCell id="84_0tGTxRUwSDMbbLnOq-105" value="" style="shape=tableRow;horizontal=0;startSize=0;swimlaneHead=0;swimlaneBody=0;fillColor=none;collapsible=0;dropTarget=0;points=[[0,0.5],[1,0.5]];portConstraint=eastwest;top=0;left=0;right=0;bottom=0;" parent="84_0tGTxRUwSDMbbLnOq-2" vertex="1">
          <mxGeometry y="330" width="306.75" height="30" as="geometry" />
        </mxCell>
        <mxCell id="84_0tGTxRUwSDMbbLnOq-106" value="*" style="shape=partialRectangle;connectable=0;fillColor=none;top=0;left=0;bottom=0;right=0;editable=1;overflow=hidden;" parent="84_0tGTxRUwSDMbbLnOq-105" vertex="1">
          <mxGeometry width="30" height="30" as="geometry">
            <mxRectangle width="30" height="30" as="alternateBounds" />
          </mxGeometry>
        </mxCell>
        <mxCell id="84_0tGTxRUwSDMbbLnOq-107" value="diseÃ±o_imagen JSON" style="shape=partialRectangle;connectable=0;fillColor=none;top=0;left=0;bottom=0;right=0;align=left;spacingLeft=6;overflow=hidden;" parent="84_0tGTxRUwSDMbbLnOq-105" vertex="1">
          <mxGeometry x="30" width="276.75" height="30" as="geometry">
            <mxRectangle width="276.75" height="30" as="alternateBounds" />
          </mxGeometry>
        </mxCell>
        <mxCell id="84_0tGTxRUwSDMbbLnOq-96" value="" style="shape=tableRow;horizontal=0;startSize=0;swimlaneHead=0;swimlaneBody=0;fillColor=none;collapsible=0;dropTarget=0;points=[[0,0.5],[1,0.5]];portConstraint=eastwest;top=0;left=0;right=0;bottom=0;" parent="84_0tGTxRUwSDMbbLnOq-2" vertex="1">
          <mxGeometry y="360" width="306.75" height="30" as="geometry" />
        </mxCell>
        <mxCell id="84_0tGTxRUwSDMbbLnOq-97" value="*" style="shape=partialRectangle;connectable=0;fillColor=none;top=0;left=0;bottom=0;right=0;editable=1;overflow=hidden;" parent="84_0tGTxRUwSDMbbLnOq-96" vertex="1">
          <mxGeometry width="30" height="30" as="geometry">
            <mxRectangle width="30" height="30" as="alternateBounds" />
          </mxGeometry>
        </mxCell>
        <mxCell id="84_0tGTxRUwSDMbbLnOq-98" value="mantenimiento BOOLEAN" style="shape=partialRectangle;connectable=0;fillColor=none;top=0;left=0;bottom=0;right=0;align=left;spacingLeft=6;overflow=hidden;" parent="84_0tGTxRUwSDMbbLnOq-96" vertex="1">
          <mxGeometry x="30" width="276.75" height="30" as="geometry">
            <mxRectangle width="276.75" height="30" as="alternateBounds" />
          </mxGeometry>
        </mxCell>
        <mxCell id="84_0tGTxRUwSDMbbLnOq-87" value="" style="shape=tableRow;horizontal=0;startSize=0;swimlaneHead=0;swimlaneBody=0;fillColor=none;collapsible=0;dropTarget=0;points=[[0,0.5],[1,0.5]];portConstraint=eastwest;top=0;left=0;right=0;bottom=0;" parent="84_0tGTxRUwSDMbbLnOq-2" vertex="1">
          <mxGeometry y="390" width="306.75" height="30" as="geometry" />
        </mxCell>
        <mxCell id="84_0tGTxRUwSDMbbLnOq-88" value="*" style="shape=partialRectangle;connectable=0;fillColor=none;top=0;left=0;bottom=0;right=0;editable=1;overflow=hidden;" parent="84_0tGTxRUwSDMbbLnOq-87" vertex="1">
          <mxGeometry width="30" height="30" as="geometry">
            <mxRectangle width="30" height="30" as="alternateBounds" />
          </mxGeometry>
        </mxCell>
        <mxCell id="84_0tGTxRUwSDMbbLnOq-89" value="dominio VARCHAR(255)" style="shape=partialRectangle;connectable=0;fillColor=none;top=0;left=0;bottom=0;right=0;align=left;spacingLeft=6;overflow=hidden;" parent="84_0tGTxRUwSDMbbLnOq-87" vertex="1">
          <mxGeometry x="30" width="276.75" height="30" as="geometry">
            <mxRectangle width="276.75" height="30" as="alternateBounds" />
          </mxGeometry>
        </mxCell>
        <mxCell id="84_0tGTxRUwSDMbbLnOq-81" value="" style="shape=tableRow;horizontal=0;startSize=0;swimlaneHead=0;swimlaneBody=0;fillColor=none;collapsible=0;dropTarget=0;points=[[0,0.5],[1,0.5]];portConstraint=eastwest;top=0;left=0;right=0;bottom=0;" parent="84_0tGTxRUwSDMbbLnOq-2" vertex="1">
          <mxGeometry y="420" width="306.75" height="30" as="geometry" />
        </mxCell>
        <mxCell id="84_0tGTxRUwSDMbbLnOq-82" value="OÂ " style="shape=partialRectangle;connectable=0;fillColor=none;top=0;left=0;bottom=0;right=0;editable=1;overflow=hidden;" parent="84_0tGTxRUwSDMbbLnOq-81" vertex="1">
          <mxGeometry width="30" height="30" as="geometry">
            <mxRectangle width="30" height="30" as="alternateBounds" />
          </mxGeometry>
        </mxCell>
        <mxCell id="84_0tGTxRUwSDMbbLnOq-83" value="comentarios VARCHAR(500)" style="shape=partialRectangle;connectable=0;fillColor=none;top=0;left=0;bottom=0;right=0;align=left;spacingLeft=6;overflow=hidden;" parent="84_0tGTxRUwSDMbbLnOq-81" vertex="1">
          <mxGeometry x="30" width="276.75" height="30" as="geometry">
            <mxRectangle width="276.75" height="30" as="alternateBounds" />
          </mxGeometry>
        </mxCell>
        <mxCell id="84_0tGTxRUwSDMbbLnOq-132" value="" style="shape=tableRow;horizontal=0;startSize=0;swimlaneHead=0;swimlaneBody=0;fillColor=none;collapsible=0;dropTarget=0;points=[[0,0.5],[1,0.5]];portConstraint=eastwest;top=0;left=0;right=0;bottom=0;" parent="84_0tGTxRUwSDMbbLnOq-2" vertex="1">
          <mxGeometry y="450" width="306.75" height="30" as="geometry" />
        </mxCell>
        <mxCell id="84_0tGTxRUwSDMbbLnOq-133" value="*" style="shape=partialRectangle;connectable=0;fillColor=none;top=0;left=0;bottom=0;right=0;editable=1;overflow=hidden;" parent="84_0tGTxRUwSDMbbLnOq-132" vertex="1">
          <mxGeometry width="30" height="30" as="geometry">
            <mxRectangle width="30" height="30" as="alternateBounds" />
          </mxGeometry>
        </mxCell>
        <mxCell id="84_0tGTxRUwSDMbbLnOq-134" value="fecha_creacion_breafing_web TIMESTAMP" style="shape=partialRectangle;connectable=0;fillColor=none;top=0;left=0;bottom=0;right=0;align=left;spacingLeft=6;overflow=hidden;" parent="84_0tGTxRUwSDMbbLnOq-132" vertex="1">
          <mxGeometry x="30" width="276.75" height="30" as="geometry">
            <mxRectangle width="276.75" height="30" as="alternateBounds" />
          </mxGeometry>
        </mxCell>
        <mxCell id="84_0tGTxRUwSDMbbLnOq-12" value="Contenido" style="shape=table;startSize=30;container=1;collapsible=1;childLayout=tableLayout;fixedRows=1;rowLines=0;fontStyle=1;align=center;resizeLast=1;fillColor=#008a00;fontColor=#ffffff;strokeColor=#005700;" parent="1" vertex="1">
          <mxGeometry x="1393" y="967" width="257.75" height="220" as="geometry" />
        </mxCell>
        <mxCell id="84_0tGTxRUwSDMbbLnOq-13" value="" style="shape=partialRectangle;collapsible=0;dropTarget=0;pointerEvents=0;fillColor=none;points=[[0,0.5],[1,0.5]];portConstraint=eastwest;top=0;left=0;right=0;bottom=1;" parent="84_0tGTxRUwSDMbbLnOq-12" vertex="1">
          <mxGeometry y="30" width="257.75" height="30" as="geometry" />
        </mxCell>
        <mxCell id="84_0tGTxRUwSDMbbLnOq-14" value="PK" style="shape=partialRectangle;overflow=hidden;connectable=0;fillColor=none;top=0;left=0;bottom=0;right=0;fontStyle=1;" parent="84_0tGTxRUwSDMbbLnOq-13" vertex="1">
          <mxGeometry width="30" height="30" as="geometry">
            <mxRectangle width="30" height="30" as="alternateBounds" />
          </mxGeometry>
        </mxCell>
        <mxCell id="84_0tGTxRUwSDMbbLnOq-15" value="contenido_id auto inc unsigned" style="shape=partialRectangle;overflow=hidden;connectable=0;fillColor=none;top=0;left=0;bottom=0;right=0;align=left;spacingLeft=6;fontStyle=5;" parent="84_0tGTxRUwSDMbbLnOq-13" vertex="1">
          <mxGeometry x="30" width="227.75" height="30" as="geometry">
            <mxRectangle width="227.75" height="30" as="alternateBounds" />
          </mxGeometry>
        </mxCell>
        <mxCell id="Bu5DhKh5VEppCecuc6ry-19" value="" style="shape=tableRow;horizontal=0;startSize=0;swimlaneHead=0;swimlaneBody=0;fillColor=#f8cecc;collapsible=0;dropTarget=0;points=[[0,0.5],[1,0.5]];portConstraint=eastwest;top=0;left=0;right=0;bottom=0;strokeColor=#b85450;" vertex="1" parent="84_0tGTxRUwSDMbbLnOq-12">
          <mxGeometry y="60" width="257.75" height="30" as="geometry" />
        </mxCell>
        <mxCell id="Bu5DhKh5VEppCecuc6ry-20" value="FK" style="shape=partialRectangle;connectable=0;fillColor=none;top=0;left=0;bottom=0;right=0;fontStyle=0;overflow=hidden;whiteSpace=wrap;html=1;" vertex="1" parent="Bu5DhKh5VEppCecuc6ry-19">
          <mxGeometry width="30" height="30" as="geometry">
            <mxRectangle width="30" height="30" as="alternateBounds" />
          </mxGeometry>
        </mxCell>
        <mxCell id="Bu5DhKh5VEppCecuc6ry-21" value="briefing_web_id" style="shape=partialRectangle;connectable=0;fillColor=none;top=0;left=0;bottom=0;right=0;align=left;spacingLeft=6;fontStyle=0;overflow=hidden;whiteSpace=wrap;html=1;" vertex="1" parent="Bu5DhKh5VEppCecuc6ry-19">
          <mxGeometry x="30" width="227.75" height="30" as="geometry">
            <mxRectangle width="227.75" height="30" as="alternateBounds" />
          </mxGeometry>
        </mxCell>
        <mxCell id="84_0tGTxRUwSDMbbLnOq-16" value="" style="shape=partialRectangle;collapsible=0;dropTarget=0;pointerEvents=0;fillColor=none;points=[[0,0.5],[1,0.5]];portConstraint=eastwest;top=0;left=0;right=0;bottom=0;" parent="84_0tGTxRUwSDMbbLnOq-12" vertex="1">
          <mxGeometry y="90" width="257.75" height="30" as="geometry" />
        </mxCell>
        <mxCell id="84_0tGTxRUwSDMbbLnOq-17" value="*" style="shape=partialRectangle;overflow=hidden;connectable=0;fillColor=none;top=0;left=0;bottom=0;right=0;" parent="84_0tGTxRUwSDMbbLnOq-16" vertex="1">
          <mxGeometry width="30" height="30" as="geometry">
            <mxRectangle width="30" height="30" as="alternateBounds" />
          </mxGeometry>
        </mxCell>
        <mxCell id="84_0tGTxRUwSDMbbLnOq-18" value="punto_menu VARCHAR(20)" style="shape=partialRectangle;overflow=hidden;connectable=0;fillColor=none;top=0;left=0;bottom=0;right=0;align=left;spacingLeft=6;" parent="84_0tGTxRUwSDMbbLnOq-16" vertex="1">
          <mxGeometry x="30" width="227.75" height="30" as="geometry">
            <mxRectangle width="227.75" height="30" as="alternateBounds" />
          </mxGeometry>
        </mxCell>
        <mxCell id="84_0tGTxRUwSDMbbLnOq-19" value="" style="shape=partialRectangle;collapsible=0;dropTarget=0;pointerEvents=0;fillColor=none;points=[[0,0.5],[1,0.5]];portConstraint=eastwest;top=0;left=0;right=0;bottom=0;" parent="84_0tGTxRUwSDMbbLnOq-12" vertex="1">
          <mxGeometry y="120" width="257.75" height="30" as="geometry" />
        </mxCell>
        <mxCell id="84_0tGTxRUwSDMbbLnOq-20" value="*" style="shape=partialRectangle;overflow=hidden;connectable=0;fillColor=none;top=0;left=0;bottom=0;right=0;" parent="84_0tGTxRUwSDMbbLnOq-19" vertex="1">
          <mxGeometry width="30" height="30" as="geometry">
            <mxRectangle width="30" height="30" as="alternateBounds" />
          </mxGeometry>
        </mxCell>
        <mxCell id="84_0tGTxRUwSDMbbLnOq-21" value="contenido TEXT" style="shape=partialRectangle;overflow=hidden;connectable=0;fillColor=none;top=0;left=0;bottom=0;right=0;align=left;spacingLeft=6;" parent="84_0tGTxRUwSDMbbLnOq-19" vertex="1">
          <mxGeometry x="30" width="227.75" height="30" as="geometry">
            <mxRectangle width="227.75" height="30" as="alternateBounds" />
          </mxGeometry>
        </mxCell>
        <mxCell id="84_0tGTxRUwSDMbbLnOq-114" value="" style="shape=tableRow;horizontal=0;startSize=0;swimlaneHead=0;swimlaneBody=0;fillColor=none;collapsible=0;dropTarget=0;points=[[0,0.5],[1,0.5]];portConstraint=eastwest;top=0;left=0;right=0;bottom=0;" parent="84_0tGTxRUwSDMbbLnOq-12" vertex="1">
          <mxGeometry y="150" width="257.75" height="30" as="geometry" />
        </mxCell>
        <mxCell id="84_0tGTxRUwSDMbbLnOq-115" value="O" style="shape=partialRectangle;connectable=0;fillColor=none;top=0;left=0;bottom=0;right=0;editable=1;overflow=hidden;" parent="84_0tGTxRUwSDMbbLnOq-114" vertex="1">
          <mxGeometry width="30" height="30" as="geometry">
            <mxRectangle width="30" height="30" as="alternateBounds" />
          </mxGeometry>
        </mxCell>
        <mxCell id="84_0tGTxRUwSDMbbLnOq-116" value="ruta_imagenesÂ " style="shape=partialRectangle;connectable=0;fillColor=none;top=0;left=0;bottom=0;right=0;align=left;spacingLeft=6;overflow=hidden;" parent="84_0tGTxRUwSDMbbLnOq-114" vertex="1">
          <mxGeometry x="30" width="227.75" height="30" as="geometry">
            <mxRectangle width="227.75" height="30" as="alternateBounds" />
          </mxGeometry>
        </mxCell>
        <mxCell id="84_0tGTxRUwSDMbbLnOq-135" value="" style="shape=tableRow;horizontal=0;startSize=0;swimlaneHead=0;swimlaneBody=0;fillColor=none;collapsible=0;dropTarget=0;points=[[0,0.5],[1,0.5]];portConstraint=eastwest;top=0;left=0;right=0;bottom=0;" parent="84_0tGTxRUwSDMbbLnOq-12" vertex="1">
          <mxGeometry y="180" width="257.75" height="30" as="geometry" />
        </mxCell>
        <mxCell id="84_0tGTxRUwSDMbbLnOq-136" value="*" style="shape=partialRectangle;connectable=0;fillColor=none;top=0;left=0;bottom=0;right=0;editable=1;overflow=hidden;" parent="84_0tGTxRUwSDMbbLnOq-135" vertex="1">
          <mxGeometry width="30" height="30" as="geometry">
            <mxRectangle width="30" height="30" as="alternateBounds" />
          </mxGeometry>
        </mxCell>
        <mxCell id="84_0tGTxRUwSDMbbLnOq-137" value="fecha_creacion_contenido TIMESTAMP" style="shape=partialRectangle;connectable=0;fillColor=none;top=0;left=0;bottom=0;right=0;align=left;spacingLeft=6;overflow=hidden;" parent="84_0tGTxRUwSDMbbLnOq-135" vertex="1">
          <mxGeometry x="30" width="227.75" height="30" as="geometry">
            <mxRectangle width="227.75" height="30" as="alternateBounds" />
          </mxGeometry>
        </mxCell>
        <mxCell id="84_0tGTxRUwSDMbbLnOq-22" value="Incidencia" style="shape=table;startSize=30;container=1;collapsible=1;childLayout=tableLayout;fixedRows=1;rowLines=0;fontStyle=1;align=center;resizeLast=1;fillColor=#e51400;fontColor=#ffffff;strokeColor=#B20000;" parent="1" vertex="1">
          <mxGeometry x="621" y="1466" width="250" height="310" as="geometry" />
        </mxCell>
        <mxCell id="84_0tGTxRUwSDMbbLnOq-23" value="" style="shape=partialRectangle;collapsible=0;dropTarget=0;pointerEvents=0;fillColor=none;points=[[0,0.5],[1,0.5]];portConstraint=eastwest;top=0;left=0;right=0;bottom=1;" parent="84_0tGTxRUwSDMbbLnOq-22" vertex="1">
          <mxGeometry y="30" width="250" height="30" as="geometry" />
        </mxCell>
        <mxCell id="84_0tGTxRUwSDMbbLnOq-24" value="PK" style="shape=partialRectangle;overflow=hidden;connectable=0;fillColor=none;top=0;left=0;bottom=0;right=0;fontStyle=1;" parent="84_0tGTxRUwSDMbbLnOq-23" vertex="1">
          <mxGeometry width="32.04545454545428" height="30" as="geometry">
            <mxRectangle width="32.04545454545428" height="30" as="alternateBounds" />
          </mxGeometry>
        </mxCell>
        <mxCell id="84_0tGTxRUwSDMbbLnOq-25" value="incidencia_id" style="shape=partialRectangle;overflow=hidden;connectable=0;fillColor=none;top=0;left=0;bottom=0;right=0;align=left;spacingLeft=6;fontStyle=5;" parent="84_0tGTxRUwSDMbbLnOq-23" vertex="1">
          <mxGeometry x="32.04545454545428" width="217.95454545454572" height="30" as="geometry">
            <mxRectangle width="217.95454545454572" height="30" as="alternateBounds" />
          </mxGeometry>
        </mxCell>
        <mxCell id="Bu5DhKh5VEppCecuc6ry-22" value="" style="shape=tableRow;horizontal=0;startSize=0;swimlaneHead=0;swimlaneBody=0;fillColor=#f8cecc;collapsible=0;dropTarget=0;points=[[0,0.5],[1,0.5]];portConstraint=eastwest;top=0;left=0;right=0;bottom=0;strokeColor=#b85450;" vertex="1" parent="84_0tGTxRUwSDMbbLnOq-22">
          <mxGeometry y="60" width="250" height="30" as="geometry" />
        </mxCell>
        <mxCell id="Bu5DhKh5VEppCecuc6ry-23" value="FK" style="shape=partialRectangle;connectable=0;fillColor=none;top=0;left=0;bottom=0;right=0;fontStyle=0;overflow=hidden;whiteSpace=wrap;html=1;" vertex="1" parent="Bu5DhKh5VEppCecuc6ry-22">
          <mxGeometry width="32.04545454545428" height="30" as="geometry">
            <mxRectangle width="32.04545454545428" height="30" as="alternateBounds" />
          </mxGeometry>
        </mxCell>
        <mxCell id="Bu5DhKh5VEppCecuc6ry-24" value="briefing_app_id NULLABLE" style="shape=partialRectangle;connectable=0;fillColor=none;top=0;left=0;bottom=0;right=0;align=left;spacingLeft=6;fontStyle=0;overflow=hidden;whiteSpace=wrap;html=1;" vertex="1" parent="Bu5DhKh5VEppCecuc6ry-22">
          <mxGeometry x="32.04545454545428" width="217.95454545454572" height="30" as="geometry">
            <mxRectangle width="217.95454545454572" height="30" as="alternateBounds" />
          </mxGeometry>
        </mxCell>
        <mxCell id="Bu5DhKh5VEppCecuc6ry-25" value="" style="shape=tableRow;horizontal=0;startSize=0;swimlaneHead=0;swimlaneBody=0;fillColor=#f8cecc;collapsible=0;dropTarget=0;points=[[0,0.5],[1,0.5]];portConstraint=eastwest;top=0;left=0;right=0;bottom=0;strokeColor=#b85450;" vertex="1" parent="84_0tGTxRUwSDMbbLnOq-22">
          <mxGeometry y="90" width="250" height="30" as="geometry" />
        </mxCell>
        <mxCell id="Bu5DhKh5VEppCecuc6ry-26" value="FK" style="shape=partialRectangle;connectable=0;fillColor=none;top=0;left=0;bottom=0;right=0;fontStyle=0;overflow=hidden;whiteSpace=wrap;html=1;" vertex="1" parent="Bu5DhKh5VEppCecuc6ry-25">
          <mxGeometry width="32.04545454545428" height="30" as="geometry">
            <mxRectangle width="32.04545454545428" height="30" as="alternateBounds" />
          </mxGeometry>
        </mxCell>
        <mxCell id="Bu5DhKh5VEppCecuc6ry-27" value="briefing_web_id NULLABLE" style="shape=partialRectangle;connectable=0;fillColor=none;top=0;left=0;bottom=0;right=0;align=left;spacingLeft=6;fontStyle=0;overflow=hidden;whiteSpace=wrap;html=1;" vertex="1" parent="Bu5DhKh5VEppCecuc6ry-25">
          <mxGeometry x="32.04545454545428" width="217.95454545454572" height="30" as="geometry">
            <mxRectangle width="217.95454545454572" height="30" as="alternateBounds" />
          </mxGeometry>
        </mxCell>
        <mxCell id="84_0tGTxRUwSDMbbLnOq-26" value="" style="shape=partialRectangle;collapsible=0;dropTarget=0;pointerEvents=0;fillColor=none;points=[[0,0.5],[1,0.5]];portConstraint=eastwest;top=0;left=0;right=0;bottom=0;" parent="84_0tGTxRUwSDMbbLnOq-22" vertex="1">
          <mxGeometry y="120" width="250" height="30" as="geometry" />
        </mxCell>
        <mxCell id="84_0tGTxRUwSDMbbLnOq-27" value="*" style="shape=partialRectangle;overflow=hidden;connectable=0;fillColor=none;top=0;left=0;bottom=0;right=0;" parent="84_0tGTxRUwSDMbbLnOq-26" vertex="1">
          <mxGeometry width="32.04545454545428" height="30" as="geometry">
            <mxRectangle width="32.04545454545428" height="30" as="alternateBounds" />
          </mxGeometry>
        </mxCell>
        <mxCell id="84_0tGTxRUwSDMbbLnOq-28" value="tipo enum(web, app)" style="shape=partialRectangle;overflow=hidden;connectable=0;fillColor=none;top=0;left=0;bottom=0;right=0;align=left;spacingLeft=6;" parent="84_0tGTxRUwSDMbbLnOq-26" vertex="1">
          <mxGeometry x="32.04545454545428" width="217.95454545454572" height="30" as="geometry">
            <mxRectangle width="217.95454545454572" height="30" as="alternateBounds" />
          </mxGeometry>
        </mxCell>
        <mxCell id="84_0tGTxRUwSDMbbLnOq-29" value="" style="shape=partialRectangle;collapsible=0;dropTarget=0;pointerEvents=0;fillColor=none;points=[[0,0.5],[1,0.5]];portConstraint=eastwest;top=0;left=0;right=0;bottom=0;" parent="84_0tGTxRUwSDMbbLnOq-22" vertex="1">
          <mxGeometry y="150" width="250" height="30" as="geometry" />
        </mxCell>
        <mxCell id="84_0tGTxRUwSDMbbLnOq-30" value="*" style="shape=partialRectangle;overflow=hidden;connectable=0;fillColor=none;top=0;left=0;bottom=0;right=0;" parent="84_0tGTxRUwSDMbbLnOq-29" vertex="1">
          <mxGeometry width="32.04545454545428" height="30" as="geometry">
            <mxRectangle width="32.04545454545428" height="30" as="alternateBounds" />
          </mxGeometry>
        </mxCell>
        <mxCell id="84_0tGTxRUwSDMbbLnOq-31" value="titulo VARCHAR(20)" style="shape=partialRectangle;overflow=hidden;connectable=0;fillColor=none;top=0;left=0;bottom=0;right=0;align=left;spacingLeft=6;" parent="84_0tGTxRUwSDMbbLnOq-29" vertex="1">
          <mxGeometry x="32.04545454545428" width="217.95454545454572" height="30" as="geometry">
            <mxRectangle width="217.95454545454572" height="30" as="alternateBounds" />
          </mxGeometry>
        </mxCell>
        <mxCell id="84_0tGTxRUwSDMbbLnOq-117" value="" style="shape=tableRow;horizontal=0;startSize=0;swimlaneHead=0;swimlaneBody=0;fillColor=none;collapsible=0;dropTarget=0;points=[[0,0.5],[1,0.5]];portConstraint=eastwest;top=0;left=0;right=0;bottom=0;" parent="84_0tGTxRUwSDMbbLnOq-22" vertex="1">
          <mxGeometry y="180" width="250" height="30" as="geometry" />
        </mxCell>
        <mxCell id="84_0tGTxRUwSDMbbLnOq-118" value="*" style="shape=partialRectangle;connectable=0;fillColor=none;top=0;left=0;bottom=0;right=0;editable=1;overflow=hidden;" parent="84_0tGTxRUwSDMbbLnOq-117" vertex="1">
          <mxGeometry width="32.04545454545428" height="30" as="geometry">
            <mxRectangle width="32.04545454545428" height="30" as="alternateBounds" />
          </mxGeometry>
        </mxCell>
        <mxCell id="84_0tGTxRUwSDMbbLnOq-119" value="descripcion VARCHAR(500)" style="shape=partialRectangle;connectable=0;fillColor=none;top=0;left=0;bottom=0;right=0;align=left;spacingLeft=6;overflow=hidden;" parent="84_0tGTxRUwSDMbbLnOq-117" vertex="1">
          <mxGeometry x="32.04545454545428" width="217.95454545454572" height="30" as="geometry">
            <mxRectangle width="217.95454545454572" height="30" as="alternateBounds" />
          </mxGeometry>
        </mxCell>
        <mxCell id="84_0tGTxRUwSDMbbLnOq-123" value="" style="shape=tableRow;horizontal=0;startSize=0;swimlaneHead=0;swimlaneBody=0;fillColor=none;collapsible=0;dropTarget=0;points=[[0,0.5],[1,0.5]];portConstraint=eastwest;top=0;left=0;right=0;bottom=0;" parent="84_0tGTxRUwSDMbbLnOq-22" vertex="1">
          <mxGeometry y="210" width="250" height="30" as="geometry" />
        </mxCell>
        <mxCell id="84_0tGTxRUwSDMbbLnOq-124" value="O" style="shape=partialRectangle;connectable=0;fillColor=none;top=0;left=0;bottom=0;right=0;editable=1;overflow=hidden;" parent="84_0tGTxRUwSDMbbLnOq-123" vertex="1">
          <mxGeometry width="32.04545454545428" height="30" as="geometry">
            <mxRectangle width="32.04545454545428" height="30" as="alternateBounds" />
          </mxGeometry>
        </mxCell>
        <mxCell id="84_0tGTxRUwSDMbbLnOq-125" value="url VARCHAR(100)" style="shape=partialRectangle;connectable=0;fillColor=none;top=0;left=0;bottom=0;right=0;align=left;spacingLeft=6;overflow=hidden;" parent="84_0tGTxRUwSDMbbLnOq-123" vertex="1">
          <mxGeometry x="32.04545454545428" width="217.95454545454572" height="30" as="geometry">
            <mxRectangle width="217.95454545454572" height="30" as="alternateBounds" />
          </mxGeometry>
        </mxCell>
        <mxCell id="84_0tGTxRUwSDMbbLnOq-120" value="" style="shape=tableRow;horizontal=0;startSize=0;swimlaneHead=0;swimlaneBody=0;fillColor=none;collapsible=0;dropTarget=0;points=[[0,0.5],[1,0.5]];portConstraint=eastwest;top=0;left=0;right=0;bottom=0;" parent="84_0tGTxRUwSDMbbLnOq-22" vertex="1">
          <mxGeometry y="240" width="250" height="30" as="geometry" />
        </mxCell>
        <mxCell id="84_0tGTxRUwSDMbbLnOq-121" value="O" style="shape=partialRectangle;connectable=0;fillColor=none;top=0;left=0;bottom=0;right=0;editable=1;overflow=hidden;" parent="84_0tGTxRUwSDMbbLnOq-120" vertex="1">
          <mxGeometry width="32.04545454545428" height="30" as="geometry">
            <mxRectangle width="32.04545454545428" height="30" as="alternateBounds" />
          </mxGeometry>
        </mxCell>
        <mxCell id="84_0tGTxRUwSDMbbLnOq-122" value="ruta_imagenes JSON" style="shape=partialRectangle;connectable=0;fillColor=none;top=0;left=0;bottom=0;right=0;align=left;spacingLeft=6;overflow=hidden;" parent="84_0tGTxRUwSDMbbLnOq-120" vertex="1">
          <mxGeometry x="32.04545454545428" width="217.95454545454572" height="30" as="geometry">
            <mxRectangle width="217.95454545454572" height="30" as="alternateBounds" />
          </mxGeometry>
        </mxCell>
        <mxCell id="84_0tGTxRUwSDMbbLnOq-138" value="" style="shape=tableRow;horizontal=0;startSize=0;swimlaneHead=0;swimlaneBody=0;fillColor=none;collapsible=0;dropTarget=0;points=[[0,0.5],[1,0.5]];portConstraint=eastwest;top=0;left=0;right=0;bottom=0;" parent="84_0tGTxRUwSDMbbLnOq-22" vertex="1">
          <mxGeometry y="270" width="250" height="30" as="geometry" />
        </mxCell>
        <mxCell id="84_0tGTxRUwSDMbbLnOq-139" value="*" style="shape=partialRectangle;connectable=0;fillColor=none;top=0;left=0;bottom=0;right=0;editable=1;overflow=hidden;" parent="84_0tGTxRUwSDMbbLnOq-138" vertex="1">
          <mxGeometry width="32.04545454545428" height="30" as="geometry">
            <mxRectangle width="32.04545454545428" height="30" as="alternateBounds" />
          </mxGeometry>
        </mxCell>
        <mxCell id="84_0tGTxRUwSDMbbLnOq-140" value="fecha_creacion_incidencia TIMESTAMP" style="shape=partialRectangle;connectable=0;fillColor=none;top=0;left=0;bottom=0;right=0;align=left;spacingLeft=6;overflow=hidden;" parent="84_0tGTxRUwSDMbbLnOq-138" vertex="1">
          <mxGeometry x="32.04545454545428" width="217.95454545454572" height="30" as="geometry">
            <mxRectangle width="217.95454545454572" height="30" as="alternateBounds" />
          </mxGeometry>
        </mxCell>
        <mxCell id="84_0tGTxRUwSDMbbLnOq-32" value="Web" style="shape=table;startSize=30;container=1;collapsible=1;childLayout=tableLayout;fixedRows=1;rowLines=0;fontStyle=1;align=center;resizeLast=1;fillColor=#d80073;strokeColor=#A50040;fontColor=#ffffff;" parent="1" vertex="1">
          <mxGeometry x="-12" y="227.88" width="250" height="160" as="geometry" />
        </mxCell>
        <mxCell id="84_0tGTxRUwSDMbbLnOq-33" value="" style="shape=partialRectangle;collapsible=0;dropTarget=0;pointerEvents=0;fillColor=none;points=[[0,0.5],[1,0.5]];portConstraint=eastwest;top=0;left=0;right=0;bottom=1;" parent="84_0tGTxRUwSDMbbLnOq-32" vertex="1">
          <mxGeometry y="30" width="250" height="30" as="geometry" />
        </mxCell>
        <mxCell id="84_0tGTxRUwSDMbbLnOq-34" value="PK" style="shape=partialRectangle;overflow=hidden;connectable=0;fillColor=none;top=0;left=0;bottom=0;right=0;fontStyle=1;" parent="84_0tGTxRUwSDMbbLnOq-33" vertex="1">
          <mxGeometry width="30" height="30" as="geometry">
            <mxRectangle width="30" height="30" as="alternateBounds" />
          </mxGeometry>
        </mxCell>
        <mxCell id="84_0tGTxRUwSDMbbLnOq-35" value="web_idÂ Â Â int auto inc unsigned" style="shape=partialRectangle;overflow=hidden;connectable=0;fillColor=none;top=0;left=0;bottom=0;right=0;align=left;spacingLeft=6;fontStyle=5;" parent="84_0tGTxRUwSDMbbLnOq-33" vertex="1">
          <mxGeometry x="30" width="220" height="30" as="geometry">
            <mxRectangle width="220" height="30" as="alternateBounds" />
          </mxGeometry>
        </mxCell>
        <mxCell id="Bu5DhKh5VEppCecuc6ry-1" value="" style="shape=tableRow;horizontal=0;startSize=0;swimlaneHead=0;swimlaneBody=0;fillColor=none;collapsible=0;dropTarget=0;points=[[0,0.5],[1,0.5]];portConstraint=eastwest;top=0;left=0;right=0;bottom=0;" vertex="1" parent="84_0tGTxRUwSDMbbLnOq-32">
          <mxGeometry y="60" width="250" height="30" as="geometry" />
        </mxCell>
        <mxCell id="Bu5DhKh5VEppCecuc6ry-2" value="FK" style="shape=partialRectangle;connectable=0;fillColor=#f8cecc;top=0;left=0;bottom=0;right=0;editable=1;overflow=hidden;strokeColor=#b85450;" vertex="1" parent="Bu5DhKh5VEppCecuc6ry-1">
          <mxGeometry width="30" height="30" as="geometry">
            <mxRectangle width="30" height="30" as="alternateBounds" />
          </mxGeometry>
        </mxCell>
        <mxCell id="Bu5DhKh5VEppCecuc6ry-3" value="empresa_idÂ " style="shape=partialRectangle;connectable=0;fillColor=#f8cecc;top=0;left=0;bottom=0;right=0;align=left;spacingLeft=6;overflow=hidden;strokeColor=#b85450;" vertex="1" parent="Bu5DhKh5VEppCecuc6ry-1">
          <mxGeometry x="30" width="220" height="30" as="geometry">
            <mxRectangle width="220" height="30" as="alternateBounds" />
          </mxGeometry>
        </mxCell>
        <mxCell id="84_0tGTxRUwSDMbbLnOq-36" value="" style="shape=partialRectangle;collapsible=0;dropTarget=0;pointerEvents=0;fillColor=none;points=[[0,0.5],[1,0.5]];portConstraint=eastwest;top=0;left=0;right=0;bottom=0;" parent="84_0tGTxRUwSDMbbLnOq-32" vertex="1">
          <mxGeometry y="90" width="250" height="30" as="geometry" />
        </mxCell>
        <mxCell id="84_0tGTxRUwSDMbbLnOq-37" value="*" style="shape=partialRectangle;overflow=hidden;connectable=0;fillColor=none;top=0;left=0;bottom=0;right=0;" parent="84_0tGTxRUwSDMbbLnOq-36" vertex="1">
          <mxGeometry width="30" height="30" as="geometry">
            <mxRectangle width="30" height="30" as="alternateBounds" />
          </mxGeometry>
        </mxCell>
        <mxCell id="84_0tGTxRUwSDMbbLnOq-38" value="web VARCHAR(50)" style="shape=partialRectangle;overflow=hidden;connectable=0;fillColor=none;top=0;left=0;bottom=0;right=0;align=left;spacingLeft=6;" parent="84_0tGTxRUwSDMbbLnOq-36" vertex="1">
          <mxGeometry x="30" width="220" height="30" as="geometry">
            <mxRectangle width="220" height="30" as="alternateBounds" />
          </mxGeometry>
        </mxCell>
        <mxCell id="84_0tGTxRUwSDMbbLnOq-39" value="" style="shape=partialRectangle;collapsible=0;dropTarget=0;pointerEvents=0;fillColor=none;points=[[0,0.5],[1,0.5]];portConstraint=eastwest;top=0;left=0;right=0;bottom=0;" parent="84_0tGTxRUwSDMbbLnOq-32" vertex="1">
          <mxGeometry y="120" width="250" height="30" as="geometry" />
        </mxCell>
        <mxCell id="84_0tGTxRUwSDMbbLnOq-40" value="O" style="shape=partialRectangle;overflow=hidden;connectable=0;fillColor=none;top=0;left=0;bottom=0;right=0;" parent="84_0tGTxRUwSDMbbLnOq-39" vertex="1">
          <mxGeometry width="30" height="30" as="geometry">
            <mxRectangle width="30" height="30" as="alternateBounds" />
          </mxGeometry>
        </mxCell>
        <mxCell id="84_0tGTxRUwSDMbbLnOq-41" value="descripcion_web VARCHAR(150)" style="shape=partialRectangle;overflow=hidden;connectable=0;fillColor=none;top=0;left=0;bottom=0;right=0;align=left;spacingLeft=6;" parent="84_0tGTxRUwSDMbbLnOq-39" vertex="1">
          <mxGeometry x="30" width="220" height="30" as="geometry">
            <mxRectangle width="220" height="30" as="alternateBounds" />
          </mxGeometry>
        </mxCell>
        <mxCell id="84_0tGTxRUwSDMbbLnOq-141" value="Briefing_app" style="shape=table;startSize=30;container=1;collapsible=1;childLayout=tableLayout;fixedRows=1;rowLines=0;fontStyle=1;align=center;resizeLast=1;fillColor=#76608a;fontColor=#ffffff;strokeColor=#432D57;" parent="1" vertex="1">
          <mxGeometry x="409.38" y="876" width="306.75" height="369.5" as="geometry" />
        </mxCell>
        <mxCell id="84_0tGTxRUwSDMbbLnOq-142" value="" style="shape=partialRectangle;collapsible=0;dropTarget=0;pointerEvents=0;fillColor=none;points=[[0,0.5],[1,0.5]];portConstraint=eastwest;top=0;left=0;right=0;bottom=1;" parent="84_0tGTxRUwSDMbbLnOq-141" vertex="1">
          <mxGeometry y="30" width="306.75" height="30" as="geometry" />
        </mxCell>
        <mxCell id="84_0tGTxRUwSDMbbLnOq-143" value="PK" style="shape=partialRectangle;overflow=hidden;connectable=0;fillColor=none;top=0;left=0;bottom=0;right=0;fontStyle=1;" parent="84_0tGTxRUwSDMbbLnOq-142" vertex="1">
          <mxGeometry width="33.36999999999989" height="30" as="geometry">
            <mxRectangle width="33.36999999999989" height="30" as="alternateBounds" />
          </mxGeometry>
        </mxCell>
        <mxCell id="84_0tGTxRUwSDMbbLnOq-144" value="briefing_app_id int auto inc unsigned" style="shape=partialRectangle;overflow=hidden;connectable=0;fillColor=none;top=0;left=0;bottom=0;right=0;align=left;spacingLeft=6;fontStyle=5;" parent="84_0tGTxRUwSDMbbLnOq-142" vertex="1">
          <mxGeometry x="33.36999999999989" width="273.3800000000001" height="30" as="geometry">
            <mxRectangle width="273.3800000000001" height="30" as="alternateBounds" />
          </mxGeometry>
        </mxCell>
        <mxCell id="Bu5DhKh5VEppCecuc6ry-13" value="" style="shape=tableRow;horizontal=0;startSize=0;swimlaneHead=0;swimlaneBody=0;fillColor=#f8cecc;collapsible=0;dropTarget=0;points=[[0,0.5],[1,0.5]];portConstraint=eastwest;top=0;left=0;right=0;bottom=0;strokeColor=#b85450;" vertex="1" parent="84_0tGTxRUwSDMbbLnOq-141">
          <mxGeometry y="60" width="306.75" height="30" as="geometry" />
        </mxCell>
        <mxCell id="Bu5DhKh5VEppCecuc6ry-14" value="FK" style="shape=partialRectangle;connectable=0;fillColor=none;top=0;left=0;bottom=0;right=0;fontStyle=0;overflow=hidden;whiteSpace=wrap;html=1;" vertex="1" parent="Bu5DhKh5VEppCecuc6ry-13">
          <mxGeometry width="33.36999999999989" height="30" as="geometry">
            <mxRectangle width="33.36999999999989" height="30" as="alternateBounds" />
          </mxGeometry>
        </mxCell>
        <mxCell id="Bu5DhKh5VEppCecuc6ry-15" value="usuario_id" style="shape=partialRectangle;connectable=0;fillColor=none;top=0;left=0;bottom=0;right=0;align=left;spacingLeft=6;fontStyle=0;overflow=hidden;whiteSpace=wrap;html=1;" vertex="1" parent="Bu5DhKh5VEppCecuc6ry-13">
          <mxGeometry x="33.36999999999989" width="273.3800000000001" height="30" as="geometry">
            <mxRectangle width="273.3800000000001" height="30" as="alternateBounds" />
          </mxGeometry>
        </mxCell>
        <mxCell id="84_0tGTxRUwSDMbbLnOq-145" value="" style="shape=partialRectangle;collapsible=0;dropTarget=0;pointerEvents=0;fillColor=none;points=[[0,0.5],[1,0.5]];portConstraint=eastwest;top=0;left=0;right=0;bottom=0;" parent="84_0tGTxRUwSDMbbLnOq-141" vertex="1">
          <mxGeometry y="90" width="306.75" height="30" as="geometry" />
        </mxCell>
        <mxCell id="84_0tGTxRUwSDMbbLnOq-146" value="*" style="shape=partialRectangle;overflow=hidden;connectable=0;fillColor=none;top=0;left=0;bottom=0;right=0;" parent="84_0tGTxRUwSDMbbLnOq-145" vertex="1">
          <mxGeometry width="33.36999999999989" height="30" as="geometry">
            <mxRectangle width="33.36999999999989" height="30" as="alternateBounds" />
          </mxGeometry>
        </mxCell>
        <mxCell id="84_0tGTxRUwSDMbbLnOq-147" value="descripcion_empresa VARCHAR(500)" style="shape=partialRectangle;overflow=hidden;connectable=0;fillColor=none;top=0;left=0;bottom=0;right=0;align=left;spacingLeft=6;" parent="84_0tGTxRUwSDMbbLnOq-145" vertex="1">
          <mxGeometry x="33.36999999999989" width="273.3800000000001" height="30" as="geometry">
            <mxRectangle width="273.3800000000001" height="30" as="alternateBounds" />
          </mxGeometry>
        </mxCell>
        <mxCell id="84_0tGTxRUwSDMbbLnOq-148" value="" style="shape=tableRow;horizontal=0;startSize=0;swimlaneHead=0;swimlaneBody=0;fillColor=none;collapsible=0;dropTarget=0;points=[[0,0.5],[1,0.5]];portConstraint=eastwest;top=0;left=0;right=0;bottom=0;" parent="84_0tGTxRUwSDMbbLnOq-141" vertex="1">
          <mxGeometry y="120" width="306.75" height="30" as="geometry" />
        </mxCell>
        <mxCell id="84_0tGTxRUwSDMbbLnOq-149" value="O" style="shape=partialRectangle;connectable=0;fillColor=none;top=0;left=0;bottom=0;right=0;editable=1;overflow=hidden;" parent="84_0tGTxRUwSDMbbLnOq-148" vertex="1">
          <mxGeometry width="33.36999999999989" height="30" as="geometry">
            <mxRectangle width="33.36999999999989" height="30" as="alternateBounds" />
          </mxGeometry>
        </mxCell>
        <mxCell id="84_0tGTxRUwSDMbbLnOq-150" value="descripcion_proyecto VARCHAR (500)" style="shape=partialRectangle;connectable=0;fillColor=none;top=0;left=0;bottom=0;right=0;align=left;spacingLeft=6;overflow=hidden;" parent="84_0tGTxRUwSDMbbLnOq-148" vertex="1">
          <mxGeometry x="33.36999999999989" width="273.3800000000001" height="30" as="geometry">
            <mxRectangle width="273.3800000000001" height="30" as="alternateBounds" />
          </mxGeometry>
        </mxCell>
        <mxCell id="84_0tGTxRUwSDMbbLnOq-151" value="" style="shape=tableRow;horizontal=0;startSize=0;swimlaneHead=0;swimlaneBody=0;fillColor=none;collapsible=0;dropTarget=0;points=[[0,0.5],[1,0.5]];portConstraint=eastwest;top=0;left=0;right=0;bottom=0;" parent="84_0tGTxRUwSDMbbLnOq-141" vertex="1">
          <mxGeometry y="150" width="306.75" height="30" as="geometry" />
        </mxCell>
        <mxCell id="84_0tGTxRUwSDMbbLnOq-152" value="*" style="shape=partialRectangle;connectable=0;fillColor=none;top=0;left=0;bottom=0;right=0;editable=1;overflow=hidden;" parent="84_0tGTxRUwSDMbbLnOq-151" vertex="1">
          <mxGeometry width="33.36999999999989" height="30" as="geometry">
            <mxRectangle width="33.36999999999989" height="30" as="alternateBounds" />
          </mxGeometry>
        </mxCell>
        <mxCell id="84_0tGTxRUwSDMbbLnOq-153" value="objetivos VARCHAR(500)" style="shape=partialRectangle;connectable=0;fillColor=none;top=0;left=0;bottom=0;right=0;align=left;spacingLeft=6;overflow=hidden;" parent="84_0tGTxRUwSDMbbLnOq-151" vertex="1">
          <mxGeometry x="33.36999999999989" width="273.3800000000001" height="30" as="geometry">
            <mxRectangle width="273.3800000000001" height="30" as="alternateBounds" />
          </mxGeometry>
        </mxCell>
        <mxCell id="84_0tGTxRUwSDMbbLnOq-154" value="" style="shape=tableRow;horizontal=0;startSize=0;swimlaneHead=0;swimlaneBody=0;fillColor=none;collapsible=0;dropTarget=0;points=[[0,0.5],[1,0.5]];portConstraint=eastwest;top=0;left=0;right=0;bottom=0;" parent="84_0tGTxRUwSDMbbLnOq-141" vertex="1">
          <mxGeometry y="180" width="306.75" height="30" as="geometry" />
        </mxCell>
        <mxCell id="84_0tGTxRUwSDMbbLnOq-155" value="*" style="shape=partialRectangle;connectable=0;fillColor=none;top=0;left=0;bottom=0;right=0;editable=1;overflow=hidden;" parent="84_0tGTxRUwSDMbbLnOq-154" vertex="1">
          <mxGeometry width="33.36999999999989" height="30" as="geometry">
            <mxRectangle width="33.36999999999989" height="30" as="alternateBounds" />
          </mxGeometry>
        </mxCell>
        <mxCell id="84_0tGTxRUwSDMbbLnOq-156" value="competencia VARCHAR (255)" style="shape=partialRectangle;connectable=0;fillColor=none;top=0;left=0;bottom=0;right=0;align=left;spacingLeft=6;overflow=hidden;" parent="84_0tGTxRUwSDMbbLnOq-154" vertex="1">
          <mxGeometry x="33.36999999999989" width="273.3800000000001" height="30" as="geometry">
            <mxRectangle width="273.3800000000001" height="30" as="alternateBounds" />
          </mxGeometry>
        </mxCell>
        <mxCell id="84_0tGTxRUwSDMbbLnOq-230" value="" style="shape=tableRow;horizontal=0;startSize=0;swimlaneHead=0;swimlaneBody=0;fillColor=none;collapsible=0;dropTarget=0;points=[[0,0.5],[1,0.5]];portConstraint=eastwest;top=0;left=0;right=0;bottom=0;" parent="84_0tGTxRUwSDMbbLnOq-141" vertex="1">
          <mxGeometry y="210" width="306.75" height="30" as="geometry" />
        </mxCell>
        <mxCell id="84_0tGTxRUwSDMbbLnOq-231" value="O" style="shape=partialRectangle;connectable=0;fillColor=none;top=0;left=0;bottom=0;right=0;editable=1;overflow=hidden;" parent="84_0tGTxRUwSDMbbLnOq-230" vertex="1">
          <mxGeometry width="33.36999999999989" height="30" as="geometry">
            <mxRectangle width="33.36999999999989" height="30" as="alternateBounds" />
          </mxGeometry>
        </mxCell>
        <mxCell id="84_0tGTxRUwSDMbbLnOq-232" value="naming_slogan VARCHAR(150)" style="shape=partialRectangle;connectable=0;fillColor=none;top=0;left=0;bottom=0;right=0;align=left;spacingLeft=6;overflow=hidden;" parent="84_0tGTxRUwSDMbbLnOq-230" vertex="1">
          <mxGeometry x="33.36999999999989" width="273.3800000000001" height="30" as="geometry">
            <mxRectangle width="273.3800000000001" height="30" as="alternateBounds" />
          </mxGeometry>
        </mxCell>
        <mxCell id="84_0tGTxRUwSDMbbLnOq-172" value="" style="shape=tableRow;horizontal=0;startSize=0;swimlaneHead=0;swimlaneBody=0;fillColor=none;collapsible=0;dropTarget=0;points=[[0,0.5],[1,0.5]];portConstraint=eastwest;top=0;left=0;right=0;bottom=0;" parent="84_0tGTxRUwSDMbbLnOq-141" vertex="1">
          <mxGeometry y="240" width="306.75" height="30" as="geometry" />
        </mxCell>
        <mxCell id="84_0tGTxRUwSDMbbLnOq-173" value="O" style="shape=partialRectangle;connectable=0;fillColor=none;top=0;left=0;bottom=0;right=0;editable=1;overflow=hidden;" parent="84_0tGTxRUwSDMbbLnOq-172" vertex="1">
          <mxGeometry width="33.36999999999989" height="30" as="geometry">
            <mxRectangle width="33.36999999999989" height="30" as="alternateBounds" />
          </mxGeometry>
        </mxCell>
        <mxCell id="84_0tGTxRUwSDMbbLnOq-174" value="imagen_logotiop_ruta VARCHAR(255)" style="shape=partialRectangle;connectable=0;fillColor=none;top=0;left=0;bottom=0;right=0;align=left;spacingLeft=6;overflow=hidden;" parent="84_0tGTxRUwSDMbbLnOq-172" vertex="1">
          <mxGeometry x="33.36999999999989" width="273.3800000000001" height="30" as="geometry">
            <mxRectangle width="273.3800000000001" height="30" as="alternateBounds" />
          </mxGeometry>
        </mxCell>
        <mxCell id="84_0tGTxRUwSDMbbLnOq-175" value="" style="shape=tableRow;horizontal=0;startSize=0;swimlaneHead=0;swimlaneBody=0;fillColor=none;collapsible=0;dropTarget=0;points=[[0,0.5],[1,0.5]];portConstraint=eastwest;top=0;left=0;right=0;bottom=0;" parent="84_0tGTxRUwSDMbbLnOq-141" vertex="1">
          <mxGeometry y="270" width="306.75" height="30" as="geometry" />
        </mxCell>
        <mxCell id="84_0tGTxRUwSDMbbLnOq-176" value="O" style="shape=partialRectangle;connectable=0;fillColor=none;top=0;left=0;bottom=0;right=0;editable=1;overflow=hidden;" parent="84_0tGTxRUwSDMbbLnOq-175" vertex="1">
          <mxGeometry width="33.36999999999989" height="30" as="geometry">
            <mxRectangle width="33.36999999999989" height="30" as="alternateBounds" />
          </mxGeometry>
        </mxCell>
        <mxCell id="84_0tGTxRUwSDMbbLnOq-177" value="gama_cromatica VARCHAR (200)" style="shape=partialRectangle;connectable=0;fillColor=none;top=0;left=0;bottom=0;right=0;align=left;spacingLeft=6;overflow=hidden;" parent="84_0tGTxRUwSDMbbLnOq-175" vertex="1">
          <mxGeometry x="33.36999999999989" width="273.3800000000001" height="30" as="geometry">
            <mxRectangle width="273.3800000000001" height="30" as="alternateBounds" />
          </mxGeometry>
        </mxCell>
        <mxCell id="84_0tGTxRUwSDMbbLnOq-178" value="" style="shape=tableRow;horizontal=0;startSize=0;swimlaneHead=0;swimlaneBody=0;fillColor=none;collapsible=0;dropTarget=0;points=[[0,0.5],[1,0.5]];portConstraint=eastwest;top=0;left=0;right=0;bottom=0;" parent="84_0tGTxRUwSDMbbLnOq-141" vertex="1">
          <mxGeometry y="300" width="306.75" height="30" as="geometry" />
        </mxCell>
        <mxCell id="84_0tGTxRUwSDMbbLnOq-179" value="OÂ " style="shape=partialRectangle;connectable=0;fillColor=none;top=0;left=0;bottom=0;right=0;editable=1;overflow=hidden;" parent="84_0tGTxRUwSDMbbLnOq-178" vertex="1">
          <mxGeometry width="33.36999999999989" height="30" as="geometry">
            <mxRectangle width="33.36999999999989" height="30" as="alternateBounds" />
          </mxGeometry>
        </mxCell>
        <mxCell id="84_0tGTxRUwSDMbbLnOq-180" value="estructura_app TEXT" style="shape=partialRectangle;connectable=0;fillColor=none;top=0;left=0;bottom=0;right=0;align=left;spacingLeft=6;overflow=hidden;" parent="84_0tGTxRUwSDMbbLnOq-178" vertex="1">
          <mxGeometry x="33.36999999999989" width="273.3800000000001" height="30" as="geometry">
            <mxRectangle width="273.3800000000001" height="30" as="alternateBounds" />
          </mxGeometry>
        </mxCell>
        <mxCell id="84_0tGTxRUwSDMbbLnOq-181" value="" style="shape=tableRow;horizontal=0;startSize=0;swimlaneHead=0;swimlaneBody=0;fillColor=none;collapsible=0;dropTarget=0;points=[[0,0.5],[1,0.5]];portConstraint=eastwest;top=0;left=0;right=0;bottom=0;" parent="84_0tGTxRUwSDMbbLnOq-141" vertex="1">
          <mxGeometry y="330" width="306.75" height="30" as="geometry" />
        </mxCell>
        <mxCell id="84_0tGTxRUwSDMbbLnOq-182" value="*" style="shape=partialRectangle;connectable=0;fillColor=none;top=0;left=0;bottom=0;right=0;editable=1;overflow=hidden;" parent="84_0tGTxRUwSDMbbLnOq-181" vertex="1">
          <mxGeometry width="33.36999999999989" height="30" as="geometry">
            <mxRectangle width="33.36999999999989" height="30" as="alternateBounds" />
          </mxGeometry>
        </mxCell>
        <mxCell id="84_0tGTxRUwSDMbbLnOq-183" value="fecha_creacion_breafing_app TIMESTAMP" style="shape=partialRectangle;connectable=0;fillColor=none;top=0;left=0;bottom=0;right=0;align=left;spacingLeft=6;overflow=hidden;" parent="84_0tGTxRUwSDMbbLnOq-181" vertex="1">
          <mxGeometry x="33.36999999999989" width="273.3800000000001" height="30" as="geometry">
            <mxRectangle width="273.3800000000001" height="30" as="alternateBounds" />
          </mxGeometry>
        </mxCell>
        <mxCell id="84_0tGTxRUwSDMbbLnOq-184" value="Briefing_logo" style="shape=table;startSize=30;container=1;collapsible=1;childLayout=tableLayout;fixedRows=1;rowLines=0;fontStyle=1;align=center;resizeLast=1;fillColor=#76608a;fontColor=#ffffff;strokeColor=#432D57;" parent="1" vertex="1">
          <mxGeometry x="-58" y="835" width="306.75" height="249.5" as="geometry" />
        </mxCell>
        <mxCell id="84_0tGTxRUwSDMbbLnOq-185" value="" style="shape=partialRectangle;collapsible=0;dropTarget=0;pointerEvents=0;fillColor=none;points=[[0,0.5],[1,0.5]];portConstraint=eastwest;top=0;left=0;right=0;bottom=1;" parent="84_0tGTxRUwSDMbbLnOq-184" vertex="1">
          <mxGeometry y="30" width="306.75" height="30" as="geometry" />
        </mxCell>
        <mxCell id="84_0tGTxRUwSDMbbLnOq-186" value="PK" style="shape=partialRectangle;overflow=hidden;connectable=0;fillColor=none;top=0;left=0;bottom=0;right=0;fontStyle=1;" parent="84_0tGTxRUwSDMbbLnOq-185" vertex="1">
          <mxGeometry width="29.227272727272542" height="30" as="geometry">
            <mxRectangle width="29.227272727272542" height="30" as="alternateBounds" />
          </mxGeometry>
        </mxCell>
        <mxCell id="84_0tGTxRUwSDMbbLnOq-187" value="briefing_logo_id int auto inc unsigned" style="shape=partialRectangle;overflow=hidden;connectable=0;fillColor=none;top=0;left=0;bottom=0;right=0;align=left;spacingLeft=6;fontStyle=5;" parent="84_0tGTxRUwSDMbbLnOq-185" vertex="1">
          <mxGeometry x="29.227272727272542" width="277.5227272727275" height="30" as="geometry">
            <mxRectangle width="277.5227272727275" height="30" as="alternateBounds" />
          </mxGeometry>
        </mxCell>
        <mxCell id="Bu5DhKh5VEppCecuc6ry-10" value="" style="shape=tableRow;horizontal=0;startSize=0;swimlaneHead=0;swimlaneBody=0;fillColor=#f8cecc;collapsible=0;dropTarget=0;points=[[0,0.5],[1,0.5]];portConstraint=eastwest;top=0;left=0;right=0;bottom=0;strokeColor=#b85450;" vertex="1" parent="84_0tGTxRUwSDMbbLnOq-184">
          <mxGeometry y="60" width="306.75" height="30" as="geometry" />
        </mxCell>
        <mxCell id="Bu5DhKh5VEppCecuc6ry-11" value="FK" style="shape=partialRectangle;connectable=0;fillColor=none;top=0;left=0;bottom=0;right=0;fontStyle=0;overflow=hidden;whiteSpace=wrap;html=1;" vertex="1" parent="Bu5DhKh5VEppCecuc6ry-10">
          <mxGeometry width="29.227272727272542" height="30" as="geometry">
            <mxRectangle width="29.227272727272542" height="30" as="alternateBounds" />
          </mxGeometry>
        </mxCell>
        <mxCell id="Bu5DhKh5VEppCecuc6ry-12" value="usuario_id" style="shape=partialRectangle;connectable=0;fillColor=none;top=0;left=0;bottom=0;right=0;align=left;spacingLeft=6;fontStyle=0;overflow=hidden;whiteSpace=wrap;html=1;" vertex="1" parent="Bu5DhKh5VEppCecuc6ry-10">
          <mxGeometry x="29.227272727272542" width="277.5227272727275" height="30" as="geometry">
            <mxRectangle width="277.5227272727275" height="30" as="alternateBounds" />
          </mxGeometry>
        </mxCell>
        <mxCell id="84_0tGTxRUwSDMbbLnOq-188" value="" style="shape=partialRectangle;collapsible=0;dropTarget=0;pointerEvents=0;fillColor=none;points=[[0,0.5],[1,0.5]];portConstraint=eastwest;top=0;left=0;right=0;bottom=0;" parent="84_0tGTxRUwSDMbbLnOq-184" vertex="1">
          <mxGeometry y="90" width="306.75" height="30" as="geometry" />
        </mxCell>
        <mxCell id="84_0tGTxRUwSDMbbLnOq-189" value="*" style="shape=partialRectangle;overflow=hidden;connectable=0;fillColor=none;top=0;left=0;bottom=0;right=0;" parent="84_0tGTxRUwSDMbbLnOq-188" vertex="1">
          <mxGeometry width="29.227272727272542" height="30" as="geometry">
            <mxRectangle width="29.227272727272542" height="30" as="alternateBounds" />
          </mxGeometry>
        </mxCell>
        <mxCell id="84_0tGTxRUwSDMbbLnOq-190" value="nombre_logo VARCHAR(100)" style="shape=partialRectangle;overflow=hidden;connectable=0;fillColor=none;top=0;left=0;bottom=0;right=0;align=left;spacingLeft=6;" parent="84_0tGTxRUwSDMbbLnOq-188" vertex="1">
          <mxGeometry x="29.227272727272542" width="277.5227272727275" height="30" as="geometry">
            <mxRectangle width="277.5227272727275" height="30" as="alternateBounds" />
          </mxGeometry>
        </mxCell>
        <mxCell id="84_0tGTxRUwSDMbbLnOq-191" value="" style="shape=tableRow;horizontal=0;startSize=0;swimlaneHead=0;swimlaneBody=0;fillColor=none;collapsible=0;dropTarget=0;points=[[0,0.5],[1,0.5]];portConstraint=eastwest;top=0;left=0;right=0;bottom=0;" parent="84_0tGTxRUwSDMbbLnOq-184" vertex="1">
          <mxGeometry y="120" width="306.75" height="30" as="geometry" />
        </mxCell>
        <mxCell id="84_0tGTxRUwSDMbbLnOq-192" value="*" style="shape=partialRectangle;connectable=0;fillColor=none;top=0;left=0;bottom=0;right=0;editable=1;overflow=hidden;" parent="84_0tGTxRUwSDMbbLnOq-191" vertex="1">
          <mxGeometry width="29.227272727272542" height="30" as="geometry">
            <mxRectangle width="29.227272727272542" height="30" as="alternateBounds" />
          </mxGeometry>
        </mxCell>
        <mxCell id="84_0tGTxRUwSDMbbLnOq-193" value="audiencia VARCHAR(500)" style="shape=partialRectangle;connectable=0;fillColor=none;top=0;left=0;bottom=0;right=0;align=left;spacingLeft=6;overflow=hidden;" parent="84_0tGTxRUwSDMbbLnOq-191" vertex="1">
          <mxGeometry x="29.227272727272542" width="277.5227272727275" height="30" as="geometry">
            <mxRectangle width="277.5227272727275" height="30" as="alternateBounds" />
          </mxGeometry>
        </mxCell>
        <mxCell id="84_0tGTxRUwSDMbbLnOq-194" value="" style="shape=tableRow;horizontal=0;startSize=0;swimlaneHead=0;swimlaneBody=0;fillColor=none;collapsible=0;dropTarget=0;points=[[0,0.5],[1,0.5]];portConstraint=eastwest;top=0;left=0;right=0;bottom=0;" parent="84_0tGTxRUwSDMbbLnOq-184" vertex="1">
          <mxGeometry y="150" width="306.75" height="30" as="geometry" />
        </mxCell>
        <mxCell id="84_0tGTxRUwSDMbbLnOq-195" value="*" style="shape=partialRectangle;connectable=0;fillColor=none;top=0;left=0;bottom=0;right=0;editable=1;overflow=hidden;" parent="84_0tGTxRUwSDMbbLnOq-194" vertex="1">
          <mxGeometry width="29.227272727272542" height="30" as="geometry">
            <mxRectangle width="29.227272727272542" height="30" as="alternateBounds" />
          </mxGeometry>
        </mxCell>
        <mxCell id="84_0tGTxRUwSDMbbLnOq-196" value="ejemplo VARCHAR (500)" style="shape=partialRectangle;connectable=0;fillColor=none;top=0;left=0;bottom=0;right=0;align=left;spacingLeft=6;overflow=hidden;" parent="84_0tGTxRUwSDMbbLnOq-194" vertex="1">
          <mxGeometry x="29.227272727272542" width="277.5227272727275" height="30" as="geometry">
            <mxRectangle width="277.5227272727275" height="30" as="alternateBounds" />
          </mxGeometry>
        </mxCell>
        <mxCell id="84_0tGTxRUwSDMbbLnOq-197" value="" style="shape=tableRow;horizontal=0;startSize=0;swimlaneHead=0;swimlaneBody=0;fillColor=none;collapsible=0;dropTarget=0;points=[[0,0.5],[1,0.5]];portConstraint=eastwest;top=0;left=0;right=0;bottom=0;" parent="84_0tGTxRUwSDMbbLnOq-184" vertex="1">
          <mxGeometry y="180" width="306.75" height="30" as="geometry" />
        </mxCell>
        <mxCell id="84_0tGTxRUwSDMbbLnOq-198" value="*" style="shape=partialRectangle;connectable=0;fillColor=none;top=0;left=0;bottom=0;right=0;editable=1;overflow=hidden;" parent="84_0tGTxRUwSDMbbLnOq-197" vertex="1">
          <mxGeometry width="29.227272727272542" height="30" as="geometry">
            <mxRectangle width="29.227272727272542" height="30" as="alternateBounds" />
          </mxGeometry>
        </mxCell>
        <mxCell id="84_0tGTxRUwSDMbbLnOq-199" value="elementos VARCHAR (1000)" style="shape=partialRectangle;connectable=0;fillColor=none;top=0;left=0;bottom=0;right=0;align=left;spacingLeft=6;overflow=hidden;" parent="84_0tGTxRUwSDMbbLnOq-197" vertex="1">
          <mxGeometry x="29.227272727272542" width="277.5227272727275" height="30" as="geometry">
            <mxRectangle width="277.5227272727275" height="30" as="alternateBounds" />
          </mxGeometry>
        </mxCell>
        <mxCell id="84_0tGTxRUwSDMbbLnOq-200" value="" style="shape=tableRow;horizontal=0;startSize=0;swimlaneHead=0;swimlaneBody=0;fillColor=none;collapsible=0;dropTarget=0;points=[[0,0.5],[1,0.5]];portConstraint=eastwest;top=0;left=0;right=0;bottom=0;" parent="84_0tGTxRUwSDMbbLnOq-184" vertex="1">
          <mxGeometry y="210" width="306.75" height="30" as="geometry" />
        </mxCell>
        <mxCell id="84_0tGTxRUwSDMbbLnOq-201" value="*" style="shape=partialRectangle;connectable=0;fillColor=none;top=0;left=0;bottom=0;right=0;editable=1;overflow=hidden;" parent="84_0tGTxRUwSDMbbLnOq-200" vertex="1">
          <mxGeometry width="29.227272727272542" height="30" as="geometry">
            <mxRectangle width="29.227272727272542" height="30" as="alternateBounds" />
          </mxGeometry>
        </mxCell>
        <mxCell id="84_0tGTxRUwSDMbbLnOq-202" value="fecha_creacion_briefing_logo TIMESTAMP" style="shape=partialRectangle;connectable=0;fillColor=none;top=0;left=0;bottom=0;right=0;align=left;spacingLeft=6;overflow=hidden;" parent="84_0tGTxRUwSDMbbLnOq-200" vertex="1">
          <mxGeometry x="29.227272727272542" width="277.5227272727275" height="30" as="geometry">
            <mxRectangle width="277.5227272727275" height="30" as="alternateBounds" />
          </mxGeometry>
        </mxCell>
        <mxCell id="Ji0pR2RrZXWd7BPfuMg8-1" value="" style="fontSize=12;html=1;endArrow=ERmany;endFill=0;rounded=0;exitX=0.5;exitY=1;exitDx=0;exitDy=0;entryX=0.5;entryY=0;entryDx=0;entryDy=0;startArrow=ERone;startFill=0;" parent="1" source="C-vyLk0tnHw3VtMMgP7b-23" target="C-vyLk0tnHw3VtMMgP7b-2" edge="1">
          <mxGeometry width="100" height="100" relative="1" as="geometry">
            <mxPoint x="713" y="490" as="sourcePoint" />
            <mxPoint x="847" y="361" as="targetPoint" />
          </mxGeometry>
        </mxCell>
        <mxCell id="Ji0pR2RrZXWd7BPfuMg8-2" value="" style="fontSize=12;html=1;endArrow=ERmany;endFill=0;rounded=0;exitX=1;exitY=0.5;exitDx=0;exitDy=0;entryX=0;entryY=0.5;entryDx=0;entryDy=0;startArrow=ERone;startFill=0;" parent="1" source="C-vyLk0tnHw3VtMMgP7b-3" target="Bu5DhKh5VEppCecuc6ry-7" edge="1">
          <mxGeometry width="100" height="100" relative="1" as="geometry">
            <mxPoint x="571" y="426" as="sourcePoint" />
            <mxPoint x="573" y="509" as="targetPoint" />
          </mxGeometry>
        </mxCell>
        <mxCell id="Ji0pR2RrZXWd7BPfuMg8-3" value="" style="edgeStyle=entityRelationEdgeStyle;fontSize=12;html=1;endArrow=ERzeroToMany;endFill=1;rounded=0;entryX=1;entryY=0.5;entryDx=0;entryDy=0;exitX=0;exitY=0.5;exitDx=0;exitDy=0;startArrow=ERone;startFill=0;" parent="1" source="C-vyLk0tnHw3VtMMgP7b-24" target="84_0tGTxRUwSDMbbLnOq-32" edge="1">
          <mxGeometry width="100" height="100" relative="1" as="geometry">
            <mxPoint x="435" y="250" as="sourcePoint" />
            <mxPoint x="606" y="680" as="targetPoint" />
            <Array as="points">
              <mxPoint x="300" y="596" />
              <mxPoint x="473" y="729" />
            </Array>
          </mxGeometry>
        </mxCell>
        <mxCell id="Ji0pR2RrZXWd7BPfuMg8-4" value="" style="edgeStyle=orthogonalEdgeStyle;fontSize=12;html=1;endArrow=ERzeroToOne;endFill=1;rounded=0;exitX=0;exitY=0.5;exitDx=0;exitDy=0;entryX=0;entryY=0.5;entryDx=0;entryDy=0;startArrow=ERone;startFill=0;" parent="1" source="C-vyLk0tnHw3VtMMgP7b-3" target="Bu5DhKh5VEppCecuc6ry-10" edge="1">
          <mxGeometry width="100" height="100" relative="1" as="geometry">
            <mxPoint x="519" y="938" as="sourcePoint" />
            <mxPoint x="61" y="682" as="targetPoint" />
          </mxGeometry>
        </mxCell>
        <mxCell id="Ji0pR2RrZXWd7BPfuMg8-5" value="" style="fontSize=12;html=1;endArrow=ERzeroToOne;endFill=1;rounded=0;exitX=0;exitY=0.25;exitDx=0;exitDy=0;entryX=0;entryY=0.5;entryDx=0;entryDy=0;startArrow=ERone;startFill=0;edgeStyle=orthogonalEdgeStyle;" parent="1" source="C-vyLk0tnHw3VtMMgP7b-2" target="Bu5DhKh5VEppCecuc6ry-13" edge="1">
          <mxGeometry width="100" height="100" relative="1" as="geometry">
            <mxPoint x="448" y="614" as="sourcePoint" />
            <mxPoint x="78" y="844" as="targetPoint" />
            <Array as="points">
              <mxPoint x="369" y="576" />
              <mxPoint x="369" y="951" />
            </Array>
          </mxGeometry>
        </mxCell>
        <mxCell id="Ji0pR2RrZXWd7BPfuMg8-6" value="" style="fontSize=12;html=1;endArrow=ERzeroToOne;endFill=1;rounded=0;exitX=1;exitY=0.5;exitDx=0;exitDy=0;entryX=0;entryY=0.5;entryDx=0;entryDy=0;startArrow=ERone;startFill=0;edgeStyle=orthogonalEdgeStyle;" parent="1" source="C-vyLk0tnHw3VtMMgP7b-3" target="Bu5DhKh5VEppCecuc6ry-16" edge="1">
          <mxGeometry width="100" height="100" relative="1" as="geometry">
            <mxPoint x="776" y="738" as="sourcePoint" />
            <mxPoint x="776" y="835" as="targetPoint" />
          </mxGeometry>
        </mxCell>
        <mxCell id="Ji0pR2RrZXWd7BPfuMg8-7" value="" style="edgeStyle=orthogonalEdgeStyle;fontSize=12;html=1;endArrow=ERzeroToMany;endFill=1;rounded=0;entryX=0;entryY=0.5;entryDx=0;entryDy=0;exitX=1;exitY=0.5;exitDx=0;exitDy=0;startArrow=ERone;startFill=0;" parent="1" source="84_0tGTxRUwSDMbbLnOq-3" target="Bu5DhKh5VEppCecuc6ry-19" edge="1">
          <mxGeometry width="100" height="100" relative="1" as="geometry">
            <mxPoint x="1488" y="845" as="sourcePoint" />
            <mxPoint x="1291" y="847" as="targetPoint" />
          </mxGeometry>
        </mxCell>
        <mxCell id="Ji0pR2RrZXWd7BPfuMg8-8" value="" style="fontSize=12;html=1;endArrow=ERzeroToMany;endFill=1;rounded=0;exitX=1;exitY=0.5;exitDx=0;exitDy=0;startArrow=ERone;startFill=0;edgeStyle=orthogonalEdgeStyle;entryX=1;entryY=0.5;entryDx=0;entryDy=0;" parent="1" source="84_0tGTxRUwSDMbbLnOq-3" target="Bu5DhKh5VEppCecuc6ry-25" edge="1">
          <mxGeometry width="100" height="100" relative="1" as="geometry">
            <mxPoint x="1091" y="1467" as="sourcePoint" />
            <mxPoint x="1217" y="1476" as="targetPoint" />
            <Array as="points">
              <mxPoint x="1220" y="880" />
              <mxPoint x="1220" y="1571" />
            </Array>
          </mxGeometry>
        </mxCell>
        <mxCell id="Ji0pR2RrZXWd7BPfuMg8-9" value="" style="fontSize=12;html=1;endArrow=ERzeroToMany;endFill=1;rounded=0;entryX=0;entryY=0.5;entryDx=0;entryDy=0;startArrow=ERone;startFill=0;edgeStyle=orthogonalEdgeStyle;exitX=0;exitY=0.5;exitDx=0;exitDy=0;" parent="1" source="84_0tGTxRUwSDMbbLnOq-142" target="Bu5DhKh5VEppCecuc6ry-22" edge="1">
          <mxGeometry width="100" height="100" relative="1" as="geometry">
            <mxPoint x="365" y="1350" as="sourcePoint" />
            <mxPoint x="478" y="1460" as="targetPoint" />
            <Array as="points">
              <mxPoint x="345" y="921" />
              <mxPoint x="345" y="1541" />
            </Array>
          </mxGeometry>
        </mxCell>
      </root>
    </mxGraphModel>
  </diagram>
</mxfile>
